<?xml version="1.0" standalone="no"?>
<!DOCTYPE svg PUBLIC "-//W3C//DTD SVG 20010904//EN"
 "http://www.w3.org/TR/2001/REC-SVG-20010904/DTD/svg10.dtd">
<svg version="1.0" xmlns="http://www.w3.org/2000/svg"
 width="1170.000000pt" height="1468.000000pt" viewBox="0 0 1170.000000 1468.000000"
 preserveAspectRatio="xMidYMid meet">

<g transform="translate(0.000000,1468.000000) scale(0.100000,-0.100000)"
fill="#000000" stroke="none">
<path d="M11120 14669 c0 -6 11 -20 25 -31 28 -22 32 -38 10 -38 -12 0 -15
-20 -15 -120 0 -108 2 -120 18 -120 14 0 17 -7 14 -40 -3 -32 -1 -40 12 -40
14 0 16 -26 16 -239 0 -154 -4 -241 -10 -243 -6 -2 -13 -55 -17 -121 -5 -88
-9 -117 -20 -117 -9 0 -13 -13 -13 -40 0 -22 -4 -40 -8 -40 -14 0 -32 -195
-32 -340 -1 -111 -4 -142 -20 -175 -12 -27 -15 -42 -8 -46 10 -6 -41 -46 -93
-74 -11 -5 -19 -18 -19 -27 0 -16 -12 -18 -119 -18 -112 0 -120 1 -123 20 -3
17 -8 15 -43 -20 -32 -31 -48 -39 -77 -40 -21 0 -38 -4 -38 -10 0 -5 18 -10
40 -10 22 0 40 5 40 10 0 6 14 10 30 10 28 0 30 -2 30 -40 0 -22 5 -40 10 -40
6 0 10 14 10 30 0 40 11 38 54 -10 29 -32 43 -40 70 -40 19 0 36 6 39 13 3 8
13 3 31 -15 14 -14 33 -29 43 -32 10 -3 24 -19 31 -35 7 -17 22 -33 33 -36 16
-5 19 -16 19 -60 0 -29 4 -55 9 -57 4 -1 11 -92 13 -200 5 -164 3 -198 -8
-198 -8 0 -14 4 -14 9 0 5 -22 11 -49 15 -43 6 -54 12 -80 48 -17 23 -31 46
-31 51 0 9 -25 37 -34 37 -8 0 -46 38 -46 46 0 14 -31 34 -52 34 -13 1 -40 18
-63 40 -26 26 -42 35 -47 27 -9 -14 -55 9 -69 35 -5 10 -15 18 -22 18 -22 0
-97 33 -92 41 3 4 -4 10 -15 14 -11 3 -26 12 -33 18 -7 7 -22 17 -32 23 -11 6
-20 15 -20 20 -2 25 -18 54 -33 58 -9 3 -23 19 -30 35 -7 17 -22 33 -33 36
-10 4 -19 13 -19 21 0 8 -5 14 -12 14 -6 0 -22 10 -35 22 -20 19 -26 20 -33 8
-7 -12 -13 -11 -33 8 -14 13 -24 31 -23 40 1 14 -7 16 -51 14 -33 -3 -53 0
-53 7 0 5 -18 16 -40 22 -22 7 -40 18 -40 26 0 8 -12 13 -30 13 -19 0 -34 7
-42 20 -9 14 -24 20 -50 20 l-38 0 0 60 c0 54 -2 60 -21 60 -18 0 -19 2 -9 15
7 8 20 15 30 15 9 0 31 14 49 30 29 29 31 34 31 105 0 52 4 75 12 75 9 0 9 3
0 12 -7 7 -12 25 -12 40 0 15 -4 28 -10 28 -12 0 -45 69 -37 77 9 8 -13 45
-38 65 -12 9 -30 35 -40 57 -10 23 -24 41 -31 41 -24 0 -84 33 -84 46 0 7 -18
23 -40 35 -22 13 -40 29 -40 37 0 15 -24 42 -38 42 -6 0 -12 7 -16 15 -3 8
-14 15 -25 15 -11 0 -28 11 -39 25 -22 27 -37 32 -46 13 -5 -10 -7 -10 -12 0
-3 6 -19 12 -35 12 -17 0 -29 5 -29 13 0 9 -12 11 -40 9 -25 -3 -40 0 -40 7 0
6 -17 11 -40 11 -22 0 -40 -4 -40 -10 0 -6 -32 -10 -76 -10 -67 0 -76 2 -81
20 -5 19 -14 20 -120 20 -117 0 -147 -7 -171 -42 -17 -23 -32 -23 -32 0 0 14
-2 15 -10 2 -5 -9 -5 -17 1 -21 19 -12 -3 -39 -32 -39 -16 0 -38 -9 -49 -20
-11 -11 -31 -20 -45 -20 -14 0 -25 -6 -25 -13 0 -16 -52 -67 -68 -67 -7 0 -12
-7 -12 -15 0 -18 -49 -64 -67 -65 -8 0 -13 -15 -13 -40 0 -22 -4 -40 -10 -40
-5 0 -10 -18 -10 -40 0 -29 -4 -40 -15 -40 -13 0 -15 -20 -15 -123 0 -145 6
-157 83 -157 40 0 47 3 47 20 0 11 5 20 11 20 6 0 9 18 8 45 -2 35 2 50 20 69
13 14 28 23 32 20 5 -3 9 2 9 10 0 9 7 16 15 16 11 0 15 11 15 40 0 29 4 40
15 40 11 0 15 11 15 40 0 22 5 40 10 40 6 0 10 -11 10 -25 0 -14 4 -25 9 -25
17 0 71 61 71 80 0 17 7 20 40 20 22 0 40 -4 40 -10 0 -19 18 -10 53 25 34 34
37 35 111 35 44 0 76 -4 76 -10 0 -5 18 -10 40 -10 30 0 40 4 40 16 0 19 25
13 26 -7 1 -40 39 -72 56 -47 6 10 14 6 33 -14 13 -16 29 -28 35 -28 5 0 10
-18 10 -39 0 -25 5 -41 15 -45 10 -3 15 -19 15 -44 0 -33 6 -45 36 -70 29 -25
37 -40 41 -77 5 -37 3 -45 -11 -45 -12 0 -16 10 -16 40 0 22 -4 40 -10 40 -9
0 -15 -107 -10 -202 1 -36 0 -38 -29 -38 -29 0 -31 -2 -31 -40 0 -38 2 -40 29
-40 l30 0 3 -125 3 -126 -49 -17 c-27 -9 -51 -24 -53 -32 -2 -9 -19 -22 -36
-29 -18 -8 -51 -27 -74 -43 -23 -15 -48 -28 -56 -28 -8 0 -17 -9 -20 -19 -3
-14 -11 -18 -25 -14 -14 3 -29 -3 -44 -19 -13 -13 -35 -29 -50 -37 -16 -8 -30
-25 -33 -43 -4 -17 -16 -33 -28 -37 -12 -5 -34 -22 -49 -37 -34 -37 -55 -54
-65 -54 -5 0 -23 -13 -41 -30 -18 -16 -37 -30 -43 -30 -5 0 -9 -9 -9 -19 0
-18 -18 -31 -45 -31 -7 0 -43 29 -80 65 -94 90 -126 113 -180 127 -42 11 -52
10 -111 -11 -36 -13 -73 -21 -84 -18 -12 3 -21 -1 -23 -12 -3 -9 -5 -4 -6 12
0 15 -5 27 -10 27 -5 0 -12 23 -16 50 -4 28 -11 47 -16 44 -5 -3 -9 1 -9 8 0
22 -48 67 -78 73 -15 4 -34 10 -43 15 -9 5 -32 12 -52 15 -24 5 -34 12 -33 23
1 11 -8 18 -22 20 -20 3 -23 0 -21 -20 5 -34 -8 -48 -44 -48 -39 0 -103 -36
-130 -72 -34 -45 -39 -117 -38 -483 0 -192 -2 -375 -7 -405 l-7 -55 -43 43
c-24 24 -58 50 -75 58 -18 8 -39 18 -47 23 -77 44 -253 55 -356 22 -65 -20
-101 -40 -166 -87 -36 -26 -45 -29 -56 -18 -7 7 -12 15 -12 16 3 13 -24 67
-31 62 -5 -3 -9 0 -9 5 0 6 -8 11 -18 11 -10 0 -22 4 -28 10 -5 5 -48 12 -94
16 -70 5 -96 2 -147 -15 -35 -11 -72 -28 -83 -38 -29 -27 -50 -86 -51 -140 0
-57 -11 -39 -29 50 -13 66 -45 105 -100 124 -19 6 -88 15 -152 19 -69 4 -118
11 -118 17 0 21 -40 -27 -51 -61 -7 -20 -21 -45 -31 -56 -17 -18 -21 -19 -31
-6 -14 17 -41 35 -74 49 -11 6 -24 15 -28 20 -3 6 -17 11 -29 11 -13 0 -37 7
-52 15 -22 11 -66 15 -184 15 -132 -1 -161 -4 -195 -20 -22 -11 -44 -20 -50
-20 -5 0 -29 -18 -53 -40 -24 -22 -47 -40 -52 -40 -6 0 -10 -4 -10 -10 0 -5
-10 -21 -22 -35 -12 -14 -32 -51 -45 -82 -19 -47 -23 -75 -23 -167 0 -78 4
-118 14 -131 7 -11 16 -31 19 -45 19 -86 44 -122 117 -175 51 -36 113 -95 107
-101 -1 -2 -41 -4 -87 -4 -47 -1 -94 -4 -105 -7 -29 -7 -64 -55 -71 -99 -14
-82 -16 -137 -6 -158 5 -11 18 -41 28 -66 10 -25 24 -52 31 -61 7 -8 13 -20
13 -25 0 -17 94 -96 144 -120 63 -31 186 -54 288 -54 76 0 201 21 235 39 10 5
25 12 33 15 8 3 37 22 64 41 26 19 56 35 65 35 10 0 38 -15 62 -34 24 -18 71
-43 104 -56 92 -34 124 -51 130 -69 3 -9 5 -55 6 -101 0 -47 3 -93 6 -102 9
-36 20 -16 23 45 1 34 3 78 4 97 2 19 10 47 20 62 27 41 127 55 266 38 157
-19 180 -20 180 -9 0 6 4 7 10 4 5 -3 23 1 39 10 17 8 45 15 63 15 31 0 31 1
12 14 -16 11 -19 23 -16 55 2 23 8 41 12 41 4 0 30 -22 56 -48 73 -72 155 -96
336 -96 76 -1 138 2 138 6 0 4 11 13 24 20 14 7 51 29 83 48 87 52 95 53 129
13 51 -62 72 -68 234 -68 148 0 200 7 200 26 0 6 7 26 16 45 14 29 18 32 35
21 10 -6 19 -16 20 -22 0 -5 16 -23 34 -38 31 -26 44 -29 162 -38 70 -5 136
-10 146 -10 10 0 38 16 62 35 24 20 49 36 55 36 7 0 34 -11 60 -24 51 -26 138
-42 283 -52 49 -3 86 -8 83 -12 -3 -3 -1 -11 5 -19 6 -7 7 -13 3 -13 -5 0 -20
-37 -34 -81 -19 -61 -31 -84 -47 -92 -13 -6 -23 -16 -23 -23 0 -17 -99 -124
-116 -124 -15 0 -58 -41 -74 -70 -5 -10 -10 -38 -10 -62 0 -24 -6 -72 -14
-108 -8 -36 -22 -104 -32 -152 -16 -83 -26 -104 -37 -75 -3 6 -6 -5 -6 -25 -2
-72 -41 -26 -41 47 0 21 -6 35 -16 39 -12 5 -15 14 -11 35 4 20 1 33 -9 42 -9
7 -13 25 -12 45 2 18 -1 33 -7 34 -32 2 -35 -716 -5 -1220 19 -307 31 -3083
15 -3111 -3 -4 -1 -19 5 -34 19 -49 13 -61 -35 -72 -30 -7 -61 -7 -95 0 -47 9
-50 11 -59 51 l-9 41 -1 -40 -1 -40 -72 -23 c-69 -21 -76 -21 -123 -7 -63 20
-80 35 -37 35 49 0 95 29 120 77 12 24 22 52 22 62 0 11 6 24 14 28 19 11 22
42 13 141 -6 61 -12 82 -23 82 -8 0 -14 9 -14 20 0 13 -9 22 -27 26 -16 4 -47
18 -71 31 -38 23 -47 24 -90 14 -26 -5 -72 -13 -102 -16 -119 -14 -170 -83
-170 -228 0 -104 17 -160 62 -202 32 -31 36 -39 27 -57 -10 -18 -18 -20 -63
-15 -68 8 -105 26 -112 57 -12 53 -16 60 -32 60 -9 0 -30 -7 -46 -15 -33 -17
-89 -20 -116 -5 -18 10 -117 27 -280 50 -41 6 -104 15 -140 21 -36 6 -91 14
-123 18 -82 10 -100 31 -105 123 -6 120 -43 174 -132 193 -19 5 -75 11 -125
14 l-90 6 -5 125 c-4 85 -10 133 -20 150 -18 31 -61 70 -76 70 -6 0 -24 11
-39 25 -28 23 -28 25 -12 43 9 10 17 26 17 35 0 10 8 17 18 17 9 0 23 9 30 20
7 11 19 20 28 20 9 0 32 9 50 21 39 24 46 52 12 47 -13 -2 -22 -9 -20 -16 1
-7 -9 -12 -24 -12 -14 0 -37 -9 -51 -20 -14 -11 -35 -20 -46 -20 -22 0 -75
-15 -122 -36 -16 -7 -42 -15 -56 -18 -14 -3 -31 -17 -39 -30 -7 -14 -16 -25
-19 -24 -19 2 -58 -3 -68 -10 -6 -4 -14 -19 -18 -34 -6 -24 -5 -26 17 -21 l23
5 -23 -19 c-30 -25 -43 -93 -51 -278 -4 -82 -11 -158 -15 -167 -4 -9 -21 -20
-37 -23 -16 -4 -29 -11 -29 -15 0 -11 -105 -60 -191 -89 -65 -22 -147 -25
-259 -8 -19 3 -109 10 -200 16 -91 6 -196 16 -235 21 -38 6 -127 18 -197 28
-160 22 -173 31 -176 128 -2 37 -7 74 -12 83 -5 10 -6 78 -4 152 5 119 7 136
26 152 26 22 55 22 106 -3 22 -11 54 -20 69 -20 16 0 58 -15 93 -34 74 -39
125 -52 135 -37 3 6 -2 14 -12 18 -10 3 -25 12 -33 18 -8 7 -33 16 -55 20 -22
4 -58 20 -79 36 -22 16 -45 29 -50 29 -6 0 -33 11 -61 25 -27 13 -57 25 -65
25 -8 0 -33 12 -55 25 -22 14 -54 25 -71 25 -28 0 -31 -3 -27 -27 8 -53 24
-228 30 -314 6 -98 12 -88 -111 -163 -69 -42 -77 -59 -81 -161 -7 -182 -28
-273 -65 -276 -8 -1 -85 -3 -170 -3 -138 -2 -160 -4 -195 -23 -40 -21 -75 -55
-75 -73 0 -21 -21 -18 -52 8 -52 44 -164 91 -222 93 -41 1 -101 30 -101 49 0
8 -7 15 -15 15 -8 0 -15 -7 -15 -16 0 -26 -27 -43 -118 -73 -49 -16 -100 -38
-113 -49 -13 -10 -24 -16 -24 -13 0 3 -17 -11 -38 -33 -47 -48 -75 -58 -100
-34 -24 23 -92 122 -92 134 0 5 -5 8 -12 7 -7 -2 -16 17 -22 43 -6 25 -16 52
-23 60 -6 8 -14 26 -18 41 -4 16 -11 26 -16 23 -12 -8 -26 24 -34 81 -3 28
-13 64 -21 79 -8 15 -14 40 -14 56 0 19 -5 29 -15 29 -8 0 -15 7 -15 15 0 21
-27 30 -45 15 -8 -7 -15 -23 -15 -36 0 -12 -5 -26 -11 -30 -8 -5 -10 -35 -4
-103 4 -53 7 -108 6 -122 -1 -15 3 -37 8 -50 9 -23 10 -23 16 8 10 45 23 53
65 39 39 -12 70 -61 70 -108 0 -18 5 -28 15 -28 9 0 15 -10 15 -26 0 -18 -4
-25 -14 -21 -8 3 -33 11 -56 18 -23 7 -56 26 -72 43 -24 24 -32 27 -39 15 -5
-8 -9 -9 -9 -4 0 6 -5 2 -11 -7 -8 -15 -25 -18 -94 -18 -46 0 -86 4 -89 9 -6
10 -56 -9 -56 -21 0 -4 -24 -19 -52 -32 -29 -14 -69 -39 -88 -56 -46 -39 -58
-38 -65 8 -3 20 -12 51 -20 67 -8 17 -19 50 -25 75 -16 61 -47 89 -102 90 -48
2 -116 -20 -132 -42 -6 -8 -19 -17 -29 -21 -9 -4 -22 -18 -27 -32 -5 -14 -16
-25 -25 -25 -8 0 -15 -4 -15 -10 0 -5 -11 -10 -23 -10 -24 0 -24 1 -33 158 -4
86 -7 200 -6 252 2 52 -2 154 -7 225 -10 126 -11 131 -40 157 -16 14 -27 29
-24 31 10 11 -97 22 -204 21 -107 -1 -113 -2 -145 -29 -55 -47 -67 -85 -68
-216 l0 -117 -37 4 c-21 2 -51 4 -68 6 -16 1 -54 -4 -84 -11 -63 -16 -74 -8
-68 49 6 55 -10 120 -35 141 -54 46 -80 51 -228 47 -85 -2 -144 -7 -148 -14
-4 -6 -15 -13 -25 -17 -28 -10 -57 -91 -57 -158 0 -68 3 -67 -100 -44 -86 19
-129 6 -176 -50 -19 -23 -34 -49 -34 -57 0 -9 -8 -33 -17 -54 -12 -28 -17 -69
-17 -144 -1 -117 12 -152 62 -165 15 -4 30 -11 33 -17 4 -6 18 -10 33 -10 15
0 26 -6 26 -14 0 -8 -7 -14 -15 -14 -8 0 -15 -7 -15 -15 0 -9 -7 -18 -15 -21
-8 -4 -15 -13 -15 -20 0 -8 -12 -19 -26 -24 -20 -8 -25 -15 -21 -33 18 -78 19
-87 4 -87 -8 0 -22 10 -30 22 -15 22 -16 20 -16 -39 l-1 -63 -39 0 c-22 0 -41
5 -43 12 -3 9 -30 13 -81 13 l-77 1 0 -256 0 -257 50 2 c40 1 53 -3 70 -22 11
-13 24 -23 30 -23 5 0 10 -7 10 -15 0 -8 4 -15 8 -15 9 0 36 -65 41 -99 0 -4
13 -21 28 -38 16 -16 36 -40 46 -52 10 -12 22 -19 27 -16 6 3 10 2 10 -4 0 -5
37 -11 83 -13 84 -3 84 -3 112 29 16 18 37 33 47 33 10 0 26 4 36 10 47 27
114 42 191 44 57 1 86 5 89 14 6 19 80 16 84 -5 3 -16 4 -16 20 0 14 14 39 17
157 17 l140 0 4 28 4 27 2 -27 c0 -18 7 -28 16 -28 13 0 15 -25 15 -164 0
-100 -4 -167 -10 -171 -7 -4 -7 -13 0 -26 10 -18 8 -19 -27 -14 -46 6 -299 16
-473 20 -128 2 -170 9 -170 26 0 5 -11 9 -24 9 -13 0 -26 7 -30 15 -3 8 -14
15 -25 15 -11 0 -28 11 -39 25 -22 27 -37 32 -46 13 -5 -10 -7 -10 -12 0 -3 6
-12 12 -20 12 -10 0 -14 12 -14 40 0 29 -4 40 -15 40 -11 0 -15 -11 -15 -40
l0 -40 -50 0 c-39 0 -52 -4 -60 -20 -6 -11 -22 -23 -35 -26 -27 -7 -91 -99
-76 -109 5 -3 8 -96 7 -208 -2 -147 1 -210 10 -232 7 -16 15 -41 18 -55 3 -14
19 -33 36 -42 17 -10 29 -22 26 -27 -3 -4 4 -17 16 -27 15 -14 22 -16 25 -6 3
8 29 12 84 12 46 0 79 4 79 10 0 6 60 10 160 10 153 0 160 1 160 20 0 19 7 20
119 20 86 0 121 3 124 13 3 8 15 2 35 -17 17 -16 29 -33 26 -37 -2 -4 0 -10 6
-14 6 -4 10 6 10 24 0 29 2 31 40 31 33 0 40 -3 40 -20 0 -17 7 -20 50 -20 53
0 58 6 38 43 -18 30 -26 35 -59 32 -16 -1 -27 1 -24 5 3 4 25 6 50 4 l45 -5 0
41 c0 33 3 40 19 40 30 0 33 -81 4 -143 -14 -29 -23 -68 -23 -96 0 -33 -6 -54
-20 -68 -17 -19 -20 -40 -24 -165 -3 -78 -5 -149 -5 -156 -1 -7 -5 -11 -10 -8
-12 8 -20 -47 -26 -178 -3 -85 -8 -112 -20 -118 -8 -5 -15 -16 -15 -24 0 -8
-11 -36 -24 -62 -36 -70 -60 -76 -288 -69 -101 3 -254 15 -341 26 -95 12 -165
17 -175 12 -10 -5 -37 -15 -62 -22 -68 -20 -91 -49 -107 -134 -2 -11 -8 -24
-13 -29 -6 -6 -10 -30 -10 -54 0 -26 -4 -41 -10 -37 -5 3 -10 3 -10 -2 -1 -9
-1 -144 -1 -513 0 -129 -4 -237 -8 -240 -13 -7 -16 -224 -6 -363 6 -87 11
-117 22 -117 9 0 13 -17 13 -65 0 -37 4 -65 10 -65 6 0 10 -6 10 -14 0 -8 3
-16 8 -18 4 -1 14 -16 22 -32 15 -29 28 -39 63 -50 14 -4 17 -17 17 -76 0 -54
-4 -72 -15 -76 -12 -5 -15 -28 -14 -121 0 -63 -2 -117 -5 -121 -4 -3 5 -17 18
-31 25 -26 26 -26 155 -23 l131 3 0 25 c0 20 5 24 28 24 15 0 33 5 40 12 18
18 16 -75 -2 -110 -8 -15 -17 -44 -21 -65 l-7 -37 66 0 66 0 0 33 c0 36 22
151 45 242 25 95 46 213 70 399 8 65 22 132 30 149 8 16 15 55 15 86 1 33 7
64 15 75 8 11 15 36 15 55 0 39 22 131 36 153 5 7 14 36 21 63 6 28 21 84 33
125 12 41 30 118 40 170 25 129 49 223 60 234 6 6 10 22 10 36 0 14 6 34 14
45 8 11 17 55 21 98 4 42 11 77 15 77 10 0 30 108 39 210 4 47 8 79 9 72 4
-30 22 2 22 39 0 21 4 39 9 39 4 0 11 27 15 59 4 33 11 61 16 63 5 2 15 37 21
78 7 41 15 77 18 80 10 8 33 91 38 139 4 30 8 39 14 30 6 -10 9 -6 9 13 0 14
12 73 26 130 14 56 28 114 30 128 3 14 9 34 14 45 4 11 20 55 35 98 15 42 31
77 36 77 5 0 9 9 9 20 0 50 211 319 268 341 12 5 22 12 21 16 -4 22 -6 22 176
-17 107 -22 113 -22 182 0 43 14 78 32 95 51 26 28 71 39 82 20 7 -11 76 -44
126 -60 56 -19 170 -24 230 -11 30 6 68 14 84 17 16 3 40 11 53 18 15 8 35 10
51 6 25 -7 27 -12 34 -77 6 -71 25 -147 27 -109 1 11 11 25 23 30 36 16 45 86
24 171 -12 46 -14 70 -7 72 6 2 11 8 11 13 0 5 8 27 17 49 13 30 23 40 40 40
14 0 23 -6 23 -15 0 -8 9 -24 20 -35 11 -11 20 -23 20 -26 0 -10 70 -74 80
-74 6 0 10 -6 10 -13 0 -7 38 -26 87 -42 71 -25 102 -30 177 -29 50 0 108 6
128 13 47 16 66 10 112 -35 l36 -35 0 27 c0 15 -8 33 -17 40 -15 11 -15 13 -3
14 8 0 26 15 40 32 14 18 34 41 45 53 l20 20 3 -134 c1 -74 0 -141 -2 -148 -9
-22 -20 -14 -40 28 -14 32 -21 38 -32 28 -18 -15 -18 -39 0 -39 17 0 32 -94
22 -135 -4 -14 -2 -25 4 -25 5 0 10 -6 10 -14 0 -8 7 -21 15 -30 10 -10 19
-50 25 -116 16 -169 44 -229 127 -266 29 -13 57 -33 63 -45 9 -17 6 -24 -20
-49 -21 -19 -43 -30 -62 -30 -16 0 -27 -4 -24 -9 4 -5 1 -11 -6 -13 -7 -3 8
-18 33 -35 71 -50 100 -86 106 -134 4 -24 15 -57 25 -74 10 -16 18 -38 18 -47
0 -10 5 -18 10 -18 6 0 10 -6 10 -13 0 -7 8 -20 18 -28 9 -9 34 -34 55 -57 21
-23 41 -42 45 -42 20 0 70 -60 76 -91 7 -37 -40 -186 -68 -218 -8 -9 -17 -34
-21 -56 -10 -57 -53 -181 -85 -245 -15 -30 -33 -81 -39 -112 -7 -32 -17 -60
-22 -63 -5 -4 -9 -16 -9 -27 0 -28 -22 -88 -32 -88 -4 0 -8 -18 -8 -39 0 -22
-5 -43 -11 -47 -15 -9 -4 -46 31 -100 31 -49 33 -51 121 -98 30 -16 56 -32 57
-37 2 -5 11 -9 19 -9 8 0 36 -11 62 -24 25 -13 73 -33 106 -43 44 -13 72 -30
107 -64 25 -25 53 -49 62 -52 9 -4 16 -16 16 -27 0 -11 5 -20 10 -20 6 0 10 6
10 13 0 32 90 54 150 36 61 -20 100 -38 100 -49 0 -5 18 -10 40 -10 29 0 40
-4 40 -15 0 -10 10 -15 29 -15 16 0 31 -3 33 -7 3 -8 62 -38 128 -66 19 -9 56
-18 82 -22 37 -6 57 -16 89 -47 l42 -41 76 3 c42 2 85 3 96 4 11 0 47 -3 81
-7 l61 -8 13 42 c11 32 11 45 2 60 -15 23 -15 104 -1 229 12 105 14 465 2 483
-7 11 -18 455 -18 720 0 116 2 130 19 143 11 8 16 14 10 14 -17 0 53 38 77 42
16 2 24 10 24 23 0 16 -8 21 -45 25 -25 3 -50 9 -56 13 -22 13 -25 73 -7 119
23 59 106 173 158 216 19 16 20 52 1 52 -19 0 -39 27 -51 69 -13 44 -37 51
-53 16 -7 -16 -17 -23 -24 -19 -8 5 -9 2 -5 -10 7 -17 -24 -89 -42 -100 -18
-11 -32 24 -34 81 -5 152 16 611 30 663 12 45 42 253 45 310 0 8 4 20 8 25 4
6 11 60 15 121 3 61 10 129 15 150 12 52 72 103 121 104 62 0 67 -12 73 -220
7 -211 13 -274 28 -312 11 -31 3 -82 -12 -73 -6 4 -10 -16 -10 -49 0 -32 -9
-79 -20 -108 -23 -62 -26 -137 -6 -181 42 -92 46 -111 46 -221 0 -89 -4 -120
-20 -155 -11 -24 -20 -49 -20 -56 0 -8 -8 -16 -19 -20 -21 -7 -24 -56 -3 -77
6 -6 12 -18 12 -26 0 -7 14 -34 32 -59 28 -38 32 -53 33 -105 0 -69 -10 -81
-94 -108 -25 -8 -45 -19 -44 -25 1 -5 24 -13 50 -16 69 -8 98 -23 111 -56 6
-15 13 -100 16 -188 3 -88 13 -196 22 -240 9 -44 20 -105 24 -135 41 -299 51
-326 145 -376 57 -31 125 -77 125 -86 0 -23 35 -1 100 63 40 39 89 78 109 86
20 9 47 26 60 39 13 13 32 24 42 24 10 0 22 6 26 13 4 6 36 25 71 41 34 17 70
38 79 48 9 10 22 18 30 18 7 0 13 5 13 10 0 6 5 10 12 10 6 0 21 9 32 19 12
11 35 27 52 38 82 48 162 99 195 125 20 15 40 28 44 28 4 0 26 16 49 35 24 19
47 35 53 35 5 0 22 13 37 29 15 16 53 46 84 67 31 22 58 42 60 46 2 3 12 16
23 29 11 12 22 33 25 46 11 42 -6 123 -37 178 -16 29 -39 85 -49 124 -11 39
-36 100 -55 137 -41 78 -45 126 -13 148 12 9 33 16 46 16 32 0 117 45 155 82
18 17 55 47 82 68 28 20 56 44 64 53 7 10 20 17 27 17 8 0 14 4 14 8 0 5 12
15 28 23 15 7 40 24 55 36 33 26 69 30 87 8 19 -23 44 -18 58 12 18 39 15 77
-9 129 -19 39 -20 49 -9 69 12 22 11 138 -3 309 -2 28 1 31 58 49 43 13 77 17
120 13 184 -18 232 -18 279 -2 66 23 96 45 96 71 0 13 7 25 15 29 8 3 15 13
15 22 0 28 25 8 30 -24 6 -40 54 -92 84 -92 13 0 26 -3 30 -7 4 -4 34 -13 67
-20 54 -11 67 -10 126 8 35 11 81 29 100 40 40 23 68 20 121 -13 38 -24 34
-30 -28 -47 -77 -20 -120 -44 -120 -66 0 -11 -7 -29 -15 -39 -18 -23 -20 -152
-4 -231 6 -27 13 -65 16 -83 3 -17 14 -49 24 -70 26 -49 101 -141 117 -142 7
0 15 -7 18 -15 4 -8 14 -15 24 -15 10 0 20 -5 22 -11 6 -18 155 -39 278 -39
63 0 122 -1 130 -2 20 -2 90 32 90 43 0 5 7 9 15 9 8 0 15 3 15 8 0 4 13 15
30 24 33 19 120 132 120 157 0 9 7 28 14 44 29 54 36 288 34 1039 l-3 736 -30
44 c-22 30 -43 47 -70 56 -63 21 -159 26 -224 12 -48 -10 -70 -10 -113 0 -59
15 -228 18 -270 6 -42 -12 -53 8 -72 129 -10 61 -19 119 -21 130 -2 11 -8 36
-14 55 -6 19 -11 70 -11 112 0 43 -7 97 -15 122 -9 25 -15 67 -14 93 1 55 -15
181 -31 233 -5 19 -10 67 -10 107 0 40 -5 103 -10 140 -6 38 -14 124 -19 193
-5 69 -17 157 -26 195 -9 39 -18 108 -20 155 -2 47 -8 135 -13 195 -6 61 -8
138 -5 173 4 41 2 62 -5 62 -6 0 -13 -17 -15 -38 -2 -21 -4 -9 -4 28 -1 36 -6
117 -12 180 -6 63 -13 156 -15 205 -6 107 -20 223 -31 248 -4 10 -3 17 4 17 8
0 9 6 2 18 -5 10 -12 81 -16 157 -3 76 -9 143 -13 149 -4 6 -10 83 -14 171 -4
88 -11 189 -17 225 -6 36 -11 99 -12 140 0 41 -5 107 -10 145 -6 39 -10 224
-10 412 0 285 3 350 16 388 16 48 38 79 49 68 3 -3 10 5 15 18 5 13 21 35 35
48 14 14 26 30 26 37 0 6 7 14 15 18 9 3 15 18 15 34 0 17 12 45 30 68 17 22
36 46 43 55 20 25 48 77 46 86 -1 4 -1 28 0 53 l1 45 65 30 c36 17 65 32 65
35 0 3 16 16 35 29 19 13 35 29 35 36 0 7 7 15 15 19 8 3 15 14 15 24 0 10 5
23 12 30 6 6 15 33 19 59 4 27 13 74 20 106 11 47 11 65 0 105 -8 26 -16 61
-18 77 -5 32 -40 112 -57 132 -6 6 -29 34 -51 61 -22 28 -50 56 -61 62 -12 7
-27 23 -33 36 -10 23 -9 24 27 24 21 0 42 4 48 10 9 9 43 18 77 19 9 1 17 6
17 12 0 6 6 17 14 24 27 27 37 130 20 208 -8 40 -19 76 -24 81 -6 6 -10 16
-10 24 0 19 -81 121 -97 122 -7 0 -16 6 -20 13 -12 18 -71 47 -97 47 -12 0
-27 5 -33 11 -6 6 -46 15 -89 20 -42 4 -82 13 -88 19 -14 14 -53 12 -79 -4
-12 -8 -41 -17 -64 -21 -24 -4 -43 -11 -43 -16 0 -5 -14 -9 -30 -9 -18 0 -33
-6 -36 -15 -4 -8 -13 -15 -22 -15 -8 0 -23 -6 -31 -14 -27 -24 -91 -25 -91 -1
0 8 -7 15 -15 15 -8 0 -15 6 -15 13 0 25 -90 41 -232 40 -117 -1 -137 1 -143
15 -9 25 -19 472 -11 515 4 21 11 35 16 32 4 -3 11 1 13 7 3 7 6 3 6 -9 2 -39
61 -76 61 -38 0 8 4 15 9 15 5 0 12 9 16 19 10 31 54 44 110 31 53 -12 97 -39
134 -83 14 -16 30 -34 36 -41 15 -15 45 -76 45 -92 0 -7 8 -26 18 -43 20 -37
61 -43 69 -11 3 11 8 20 12 20 4 0 15 15 24 34 19 42 42 71 81 105 16 14 52
48 80 74 28 27 68 60 89 74 20 14 37 30 37 35 0 5 5 6 10 3 6 -3 13 1 16 9 3
9 12 16 19 16 7 0 15 7 19 15 3 8 11 15 18 15 6 0 21 8 32 18 12 10 37 25 56
32 19 8 62 29 95 48 74 42 177 80 239 88 25 4 46 10 46 14 0 9 99 23 155 22
53 0 107 -12 125 -26 8 -7 35 -18 60 -25 44 -13 147 -81 164 -109 4 -8 17 -23
27 -33 11 -11 19 -21 19 -24 0 -3 12 -18 26 -33 14 -15 30 -39 36 -54 5 -16
14 -25 19 -22 5 3 9 -2 9 -11 0 -9 6 -23 14 -31 8 -7 22 -35 31 -61 9 -27 23
-61 30 -78 20 -44 44 -125 47 -160 2 -18 8 -29 16 -27 8 1 12 -11 12 -39 0
-22 4 -49 10 -59 5 -10 15 -54 21 -97 6 -43 17 -98 24 -123 7 -25 17 -85 20
-135 4 -49 11 -112 17 -140 5 -27 13 -151 18 -275 5 -124 13 -239 18 -257 13
-40 22 -571 27 -1623 6 -970 17 -1690 28 -1707 13 -20 29 -259 32 -468 1 -110
5 -217 8 -237 3 -20 8 -187 12 -370 4 -183 9 -342 12 -353 22 -108 22 -110 3
-127 -14 -14 -36 -18 -87 -18 -41 0 -79 -6 -97 -15 -15 -8 -33 -15 -40 -15
-27 0 -55 -69 -62 -150 -5 -54 -11 -80 -18 -77 -40 15 -135 28 -170 22 -67
-10 -101 -47 -134 -151 -28 -85 -37 -183 -22 -228 14 -44 60 -81 122 -97 55
-15 65 -32 38 -59 -11 -11 -20 -27 -20 -35 0 -9 -7 -18 -15 -21 -12 -5 -15
-24 -15 -83 0 -76 1 -79 38 -117 55 -57 161 -122 216 -133 80 -15 156 21 192
90 20 40 38 36 73 -13 34 -49 96 -108 113 -108 9 0 9 -3 0 -12 -14 -14 -16
-58 -4 -58 5 0 12 -44 15 -97 14 -210 38 -469 47 -503 5 -19 14 -99 20 -177 6
-79 18 -168 26 -200 8 -31 12 -68 9 -82 -2 -14 2 -69 11 -121 8 -52 15 -112
14 -132 0 -37 10 -107 30 -198 5 -25 14 -97 20 -161 6 -64 16 -131 22 -150 13
-41 25 -143 36 -307 5 -68 13 -127 19 -130 6 -4 13 -27 16 -52 3 -25 12 -88
21 -140 8 -52 17 -113 20 -135 3 -22 10 -71 15 -108 5 -38 14 -74 19 -80 6 -7
12 -39 15 -72 3 -33 12 -91 20 -130 9 -38 21 -113 27 -165 7 -52 15 -99 19
-105 9 -13 28 -95 36 -158 4 -26 13 -63 21 -82 8 -19 14 -54 14 -77 1 -45 14
-111 49 -238 11 -41 21 -87 21 -102 0 -14 9 -50 19 -80 11 -29 27 -93 36 -142
9 -49 25 -116 35 -147 11 -32 20 -71 20 -86 1 -15 8 -57 16 -93 8 -36 20 -89
26 -118 l10 -52 184 0 184 0 0 7340 0 7340 -290 0 c-205 0 -290 -3 -290 -11z
m-1730 -1494 c10 -13 9 -15 -9 -15 -12 0 -21 6 -21 15 0 8 4 15 9 15 5 0 14
-7 21 -15z m-30 -75 c0 -17 -7 -20 -40 -20 -33 0 -40 3 -40 20 0 17 7 20 40
20 33 0 40 -3 40 -20z m190 -275 c-7 -8 -16 -15 -21 -15 -5 0 -9 7 -9 15 0 9
9 15 21 15 18 0 19 -2 9 -15z m-193 -85 c-1 -16 -8 -20 -42 -20 -29 0 -36 3
-25 10 10 6 11 10 3 10 -7 0 -13 5 -13 10 0 6 18 10 39 10 34 0 40 -3 38 -20z
m723 10 c0 -5 -7 -7 -15 -4 -8 4 -15 8 -15 10 0 2 7 4 15 4 8 0 15 -4 15 -10z
m-2184 -348 c9 -5 14 -163 19 -564 6 -409 11 -558 19 -561 7 -3 25 18 42 45
16 28 37 62 46 77 9 14 17 34 17 44 1 9 6 17 12 17 5 0 15 14 20 30 6 17 15
30 20 30 5 0 9 7 9 15 0 13 20 15 138 13 154 -3 155 -4 105 -76 -14 -20 -29
-46 -34 -57 -9 -21 -15 -30 -61 -103 -16 -24 -28 -47 -28 -52 0 -5 -13 -29
-30 -53 -34 -51 -42 -125 -15 -147 8 -7 15 -25 15 -40 0 -15 7 -33 15 -40 8
-7 15 -24 15 -39 0 -14 7 -35 15 -45 8 -11 15 -29 15 -41 0 -12 7 -30 15 -41
8 -10 15 -31 15 -45 0 -15 7 -32 15 -39 8 -7 15 -27 15 -44 0 -17 7 -40 15
-50 8 -11 15 -29 15 -40 0 -12 7 -30 15 -40 8 -11 15 -29 15 -41 0 -12 4 -25
9 -31 13 -14 41 -104 41 -131 0 -23 -1 -23 -130 -23 l-130 0 0 26 c0 14 -7 32
-15 40 -8 9 -15 26 -15 39 0 12 -7 36 -15 51 -8 16 -15 36 -15 44 0 8 -7 24
-15 34 -8 11 -15 32 -15 47 0 15 -7 29 -15 33 -8 3 -15 18 -15 34 0 37 -28
122 -48 145 -15 17 -17 16 -37 -19 -11 -20 -26 -46 -32 -58 -9 -15 -13 -80
-13 -219 l0 -198 -122 3 -123 3 -3 1024 c-1 748 1 1027 9 1037 12 15 204 20
225 6z m-2265 -868 c8 -7 23 -14 32 -14 8 0 22 -6 29 -13 7 -8 23 -19 36 -26
12 -6 22 -18 22 -26 0 -8 3 -15 8 -15 4 0 18 -19 30 -42 17 -32 23 -63 25
-118 l2 -75 -117 -3 -118 -3 0 26 c0 34 -48 84 -95 100 -31 11 -44 11 -88 -3
l-52 -17 -3 -51 c-3 -49 -2 -51 46 -96 27 -25 56 -48 63 -51 26 -13 53 -32 80
-59 16 -16 32 -28 37 -28 18 0 189 -178 217 -226 28 -46 30 -55 30 -164 0 -97
-3 -122 -22 -162 -12 -27 -27 -48 -32 -48 -6 0 -11 -7 -11 -15 0 -8 -7 -15
-15 -15 -9 0 -18 -6 -21 -14 -3 -8 -17 -17 -32 -21 -15 -4 -30 -12 -34 -18 -5
-9 -59 -12 -182 -12 -152 0 -176 2 -193 18 -11 9 -23 17 -28 17 -5 0 -15 7
-24 15 -9 8 -31 27 -48 41 -18 14 -33 34 -33 44 0 10 -7 23 -15 30 -8 7 -15
24 -15 39 0 15 -6 50 -14 79 -12 49 -12 53 5 63 11 5 67 8 126 7 l108 -3 3
-37 c2 -21 8 -38 14 -38 5 0 18 -10 28 -22 16 -20 28 -23 88 -23 91 0 112 17
112 88 0 44 -4 53 -37 86 -61 60 -149 131 -162 131 -6 0 -11 4 -11 8 0 5 -11
14 -24 20 -31 14 -151 123 -193 176 -7 8 -13 22 -13 29 0 8 -7 20 -15 27 -9 8
-15 29 -15 56 0 23 -5 46 -11 50 -7 4 -9 22 -5 45 3 22 9 58 12 82 4 23 13 46
20 50 8 4 14 13 14 18 0 25 48 71 100 95 8 4 22 13 30 20 20 17 92 23 230 17
81 -3 119 -8 131 -19z m1680 0 c8 -8 23 -14 33 -14 9 0 19 -7 22 -15 4 -8 12
-15 19 -15 7 0 15 -7 19 -15 3 -8 12 -15 21 -15 8 0 15 -5 15 -12 0 -6 11 -26
25 -43 30 -41 56 -107 62 -162 l5 -43 -118 0 -119 0 -20 46 c-25 56 -40 70
-85 77 -66 9 -121 -29 -135 -93 -13 -57 -17 -542 -5 -554 5 -5 10 -21 10 -36
0 -14 13 -37 31 -55 26 -25 39 -30 81 -30 43 0 53 4 74 30 13 17 31 45 39 63
l16 32 99 0 c54 0 105 -3 114 -6 29 -11 16 -94 -25 -164 -5 -8 -13 -25 -19
-37 -5 -13 -14 -23 -20 -23 -5 0 -10 -7 -10 -15 0 -8 -7 -15 -15 -15 -8 0 -15
-6 -15 -14 0 -7 -8 -17 -17 -20 -29 -11 -78 -38 -84 -48 -8 -13 -166 -22 -232
-14 -31 4 -63 14 -71 22 -8 8 -21 14 -28 14 -17 0 -98 74 -98 89 0 6 -11 29
-24 50 -44 69 -51 132 -50 446 0 162 5 308 10 330 14 53 46 125 56 125 4 0 8
9 8 19 0 21 64 81 115 108 16 9 53 19 80 24 71 10 217 0 236 -17z m1717 0 c7
-8 20 -14 28 -14 8 0 17 -7 20 -15 4 -8 15 -15 25 -15 10 0 19 -3 19 -8 0 -4
11 -19 25 -34 34 -37 58 -111 59 -183 l1 -60 -111 -3 c-122 -3 -144 5 -144 54
0 53 -86 92 -158 70 -88 -26 -96 -79 -24 -152 53 -54 99 -94 108 -94 13 0 133
-99 199 -165 45 -44 82 -92 101 -130 27 -55 29 -69 29 -166 -1 -61 -5 -113
-11 -120 -6 -8 -14 -25 -17 -39 -8 -34 -74 -100 -98 -100 -7 0 -21 -8 -32 -17
-17 -16 -41 -18 -186 -18 -146 0 -170 2 -185 18 -10 9 -25 17 -34 17 -20 0
-102 70 -102 88 0 6 -4 12 -10 12 -5 0 -14 18 -20 40 -6 21 -15 42 -20 45 -6
3 -10 32 -10 65 0 43 4 59 16 64 9 3 58 6 109 6 102 0 114 -5 139 -63 24 -58
76 -81 146 -63 59 15 90 46 90 90 0 27 -10 44 -49 84 -28 28 -68 63 -90 78
-23 15 -41 29 -41 33 0 3 -17 17 -38 31 -95 63 -216 174 -227 210 -3 11 -11
20 -16 20 -5 0 -9 13 -9 28 0 16 -7 37 -15 48 -19 25 -20 136 -1 177 8 18 17
39 20 47 15 37 59 90 76 90 6 0 10 4 10 10 0 5 12 13 28 16 15 4 34 13 42 20
20 17 92 22 229 17 79 -4 119 -10 129 -19z m-2846 -421 c5 -465 6 -477 54
-530 12 -13 35 -26 52 -29 37 -7 102 12 102 31 0 7 5 15 10 17 22 7 31 150 33
538 l2 405 123 3 122 3 0 -610 c0 -554 -1 -610 -16 -613 -9 -2 -65 -2 -125 0
-106 3 -109 4 -115 28 -3 13 -8 24 -10 24 -7 0 -48 -24 -68 -40 -28 -23 -206
-21 -230 3 -10 9 -23 17 -30 17 -20 0 -72 57 -86 93 -6 17 -19 48 -28 67 -15
31 -17 93 -20 533 l-3 497 115 0 115 0 3 -437z m135 5 c-2 -24 -4 -5 -4 42 0
47 2 66 4 43 2 -24 2 -62 0 -85z m2054 95 c5 -15 15 -49 20 -75 6 -26 15 -50
20 -54 5 -3 9 -16 9 -29 0 -28 31 -67 132 -166 43 -41 78 -79 78 -83 0 -5 -32
-6 -71 -3 -54 5 -78 2 -105 -10 -32 -16 -35 -16 -48 2 -7 10 -35 83 -61 161
-50 151 -53 189 -19 257 18 34 32 34 45 0z m-1175 -58 c4 -8 12 -15 19 -15 7
0 15 -6 18 -12 2 -7 30 -22 60 -32 46 -15 74 -18 150 -13 l94 5 7 -51 c8 -71
7 -220 -2 -233 -4 -6 -52 -10 -122 -10 -93 1 -124 -3 -158 -18 -23 -10 -42
-23 -42 -27 0 -5 -9 -13 -20 -19 -16 -9 -22 -6 -35 19 -12 24 -15 69 -15 219
0 104 3 192 7 195 11 12 33 7 39 -8z m-1366 -124 c0 -68 -11 -78 -46 -46 -72
65 -84 77 -84 85 0 9 83 18 113 11 13 -3 17 -14 17 -50z m487 -53 c-3 -7 -5
-2 -5 12 0 14 2 19 5 13 2 -7 2 -19 0 -25z m2330 -2072 c2 -83 7 -173 13 -199
5 -26 10 -97 10 -157 0 -91 -3 -110 -15 -110 -11 0 -15 -12 -16 -42 l-1 -43
-11 43 c-5 23 -15 42 -22 42 -7 0 -15 15 -18 34 -10 62 3 586 15 609 l11 21
16 -23 c12 -19 16 -58 18 -175z m2233 -876 c0 -5 18 -10 40 -10 22 0 40 -4 40
-10 0 -5 7 -10 15 -10 28 0 65 -23 65 -41 0 -10 14 -31 30 -47 24 -24 30 -39
30 -71 0 -34 -3 -41 -20 -41 -18 0 -20 -7 -20 -80 0 -47 -4 -80 -10 -80 -6 0
-10 -73 -10 -200 0 -171 2 -200 15 -200 11 0 15 -11 15 -35 0 -22 -6 -38 -15
-41 -10 -4 -15 -19 -14 -48 l2 -41 6 40 c4 27 12 41 24 43 14 3 17 -4 17 -37
0 -23 -4 -41 -10 -41 -5 0 -10 -18 -10 -40 0 -29 -4 -40 -15 -40 -11 0 -15
-11 -15 -40 0 -22 5 -40 10 -40 6 0 10 -18 10 -40 0 -22 -4 -40 -10 -40 -6 0
-10 -47 -10 -120 0 -116 1 -120 21 -120 18 0 19 -2 9 -15 -7 -8 -16 -13 -20
-10 -4 2 -19 -9 -34 -24 -20 -21 -24 -30 -14 -34 9 -4 5 -13 -14 -31 -16 -14
-28 -30 -28 -36 0 -5 -13 -10 -29 -10 -16 0 -31 -6 -34 -12 -2 -8 -18 1 -41
24 -20 20 -46 40 -56 43 -11 4 -20 12 -20 19 0 7 -13 22 -30 34 -19 14 -30 32
-30 47 0 23 -52 85 -71 85 -5 0 -9 18 -9 40 0 22 -4 40 -10 40 -5 0 -10 -18
-10 -40 0 -27 -4 -40 -14 -40 -18 0 -25 78 -18 213 4 95 3 107 -12 107 -10 0
-16 8 -16 23 0 13 -6 29 -12 35 -10 10 -10 15 1 21 11 7 11 13 -3 32 -30 43
-11 134 19 92 10 -14 14 -13 33 8 12 12 22 28 22 35 0 6 12 17 28 23 34 14 61
51 37 51 -13 0 -14 4 -4 22 14 26 13 531 -1 536 -12 4 20 72 44 94 10 10 42
24 72 33 29 8 56 20 59 25 8 13 25 13 25 0z m-2205 -140 c3 -5 -1 -10 -10 -10
-9 0 -13 5 -10 10 3 6 8 10 10 10 2 0 7 -4 10 -10z m-14 -170 c5 0 9 -18 9
-40 0 -29 -4 -40 -15 -40 -12 0 -15 15 -13 83 1 45 3 63 5 40 2 -24 8 -43 14
-43z m56 -150 c1 -39 8 -80 14 -92 7 -12 11 -49 11 -82 -1 -60 13 -132 30
-150 12 -14 9 -85 -5 -126 -9 -26 -18 -35 -35 -36 -34 -2 -52 51 -52 152 0 49
-4 84 -10 84 -11 0 -13 107 -4 188 5 34 11 52 20 52 10 0 14 13 14 40 0 69 15
43 17 -30z m2373 30 c0 -29 -4 -40 -15 -40 -11 0 -15 11 -15 40 0 29 4 40 15
40 11 0 15 -11 15 -40z m-2435 -457 c-7 -17 -8 -17 -15 2 -11 26 -12 193 -2
276 6 58 8 49 16 -98 5 -89 5 -170 1 -180z m118 -177 c5 -31 44 -102 73 -133
18 -19 27 -144 19 -270 -7 -108 -6 -118 16 -159 12 -24 26 -44 31 -44 4 0 8
-33 8 -72 0 -81 8 -121 21 -112 5 3 9 -27 9 -65 0 -56 3 -71 15 -71 11 0 12
-5 5 -26 -7 -18 -4 -61 10 -149 11 -69 20 -142 20 -164 0 -21 9 -74 20 -117
11 -44 20 -106 20 -139 0 -33 8 -89 19 -125 23 -82 27 -225 7 -260 -8 -14 -22
-40 -30 -57 -8 -18 -20 -33 -27 -33 -15 0 -59 42 -59 58 0 6 -7 12 -15 12 -8
0 -15 7 -15 15 0 8 -6 15 -14 15 -7 0 -20 7 -27 17 -8 9 -39 27 -69 41 -45 20
-76 26 -167 30 l-112 4 5 207 c3 113 9 330 13 481 5 151 7 311 5 355 -2 57 0
70 5 45 7 -30 9 -26 10 31 1 63 11 109 33 156 13 28 3 99 -22 148 -23 46 -20
160 7 245 l18 55 44 0 c29 1 47 6 56 18 6 9 14 14 17 11 6 -5 23 64 20 79 -1
4 4 7 12 7 8 0 16 -15 19 -34z m174 -678 c-3 -8 -6 -5 -6 6 -1 11 2 17 5 13 3
-3 4 -12 1 -19z m1885 -55 c8 -10 18 -26 21 -35 5 -14 18 -18 57 -18 44 0 56
-4 82 -30 16 -16 34 -30 39 -30 5 0 9 -18 9 -40 0 -29 4 -40 15 -40 11 0 15
-11 15 -40 0 -29 -4 -40 -15 -40 -13 0 -15 -27 -17 -172 -1 -95 -1 -204 -1
-243 0 -38 -1 -55 -4 -36 -2 19 -11 45 -20 58 -9 13 -19 38 -22 56 -6 28 -12
32 -51 40 -45 8 -195 2 -224 -9 -14 -5 -16 6 -15 82 2 94 2 92 -64 139 -15 11
-18 26 -18 89 0 42 -4 76 -9 76 -6 0 -10 18 -10 40 0 29 4 40 15 40 12 0 15
11 14 50 -1 28 1 53 4 57 4 3 7 -1 7 -10 0 -13 9 -17 40 -17 22 0 40 5 40 10
0 6 18 10 40 10 29 0 40 4 40 15 0 20 13 19 32 -2z m69 -26 c-13 -13 -26 -3
-16 12 3 6 11 8 17 5 6 -4 6 -10 -1 -17z m-9301 -317 c58 0 83 -4 94 -16 14
-14 16 -80 16 -574 0 -493 2 -559 15 -554 8 4 15 14 15 24 0 10 7 20 15 24 8
3 15 14 15 24 0 11 13 37 28 58 15 21 41 65 57 96 17 32 37 58 45 59 31 2 263
0 265 -3 3 -4 -22 -58 -43 -90 -9 -15 -37 -60 -61 -100 -25 -40 -48 -74 -53
-76 -4 -2 -8 -8 -8 -14 0 -6 -14 -33 -31 -61 -36 -59 -33 -105 11 -197 4 -9
11 -30 14 -48 4 -17 12 -34 17 -37 5 -4 9 -14 9 -23 0 -9 6 -29 14 -44 8 -15
17 -42 21 -60 4 -18 14 -42 21 -53 8 -11 14 -29 14 -40 0 -11 7 -29 15 -39 8
-11 15 -28 15 -38 0 -10 6 -29 14 -41 11 -18 31 -95 27 -105 -1 -1 6 -16 15
-33 8 -17 18 -41 21 -52 17 -72 28 -65 -107 -66 -125 -2 -150 4 -150 38 0 9
-7 29 -15 45 -8 15 -15 35 -15 43 0 8 -6 27 -14 41 -7 15 -21 54 -31 87 -10
33 -24 74 -31 92 -8 17 -14 37 -14 45 0 7 -6 23 -14 34 -8 11 -16 31 -18 44
-5 39 -33 36 -59 -7 -23 -37 -24 -45 -24 -238 0 -110 -4 -206 -8 -212 -6 -9
-43 -13 -127 -13 l-119 0 -5 33 c-3 17 -4 482 -3 1032 l2 999 25 13 c14 7 31
11 38 8 8 -3 49 -5 92 -5z m4720 -6 c7 -7 9 -325 8 -1040 l-3 -1029 -111 -3
c-85 -2 -114 1 -123 11 -8 11 -10 275 -9 1033 l3 1019 31 10 c42 13 190 13
204 -1z m-5358 -169 c-1 -22 -5 -93 -8 -157 l-6 -118 25 0 c13 0 30 7 37 15 7
8 23 15 35 15 12 0 28 7 35 15 7 8 23 15 35 15 12 0 28 7 35 15 7 8 23 15 36
15 15 0 24 6 24 15 0 9 7 14 18 12 30 -5 42 -18 42 -47 0 -16 7 -35 15 -44 8
-8 15 -30 15 -49 0 -19 7 -40 15 -47 8 -7 15 -27 15 -46 0 -31 -3 -34 -37 -39
-21 -4 -73 -15 -115 -26 -43 -10 -84 -19 -92 -19 -8 0 -26 -4 -40 -9 -33 -13
-26 -36 30 -94 24 -26 44 -51 44 -57 0 -5 7 -10 15 -10 8 0 15 -6 15 -13 0 -7
13 -24 28 -37 55 -49 50 -63 -36 -122 -26 -17 -65 -46 -87 -64 -31 -25 -44
-30 -58 -23 -9 6 -17 16 -17 24 0 7 -6 20 -12 27 -20 21 -37 50 -49 81 -6 15
-15 27 -20 27 -5 0 -9 6 -9 14 0 7 -7 19 -15 26 -8 7 -15 21 -15 31 0 20 -35
44 -50 34 -6 -3 -10 -15 -10 -26 0 -10 -4 -19 -9 -19 -5 0 -14 -13 -21 -30 -7
-16 -16 -30 -21 -30 -5 0 -9 -8 -10 -17 0 -10 -9 -31 -20 -48 -10 -16 -23 -39
-28 -50 -5 -11 -17 -28 -28 -37 -19 -17 -22 -16 -79 27 -32 25 -64 49 -71 55
-7 5 -17 10 -23 10 -5 0 -10 4 -10 8 0 5 -11 15 -25 22 -14 7 -25 16 -25 20 0
4 11 19 25 34 14 15 25 29 25 31 0 2 33 39 74 81 41 43 76 88 79 100 3 20 -1
24 -37 29 -23 4 -77 15 -121 25 -44 10 -95 22 -112 25 -30 6 -33 10 -33 44 0
20 7 46 15 57 8 10 15 31 15 46 0 15 5 30 10 33 6 4 8 11 5 16 -4 5 -2 9 4 9
5 0 11 15 13 32 3 37 27 48 51 23 9 -8 24 -15 35 -15 11 0 25 -7 32 -15 7 -8
20 -15 29 -15 10 0 26 -7 37 -15 10 -8 27 -15 37 -15 10 0 25 -7 33 -15 19
-19 63 -20 70 -1 3 7 0 51 -6 97 -6 46 -14 112 -17 147 l-6 63 139 -3 139 -3
-3 -40z m9615 -40 c-3 -46 -11 -93 -16 -104 -6 -11 -11 -45 -11 -75 0 -55 1
-56 29 -56 16 0 34 7 41 15 7 8 20 15 30 15 9 0 42 14 73 30 31 17 64 30 72
30 9 0 18 6 21 13 2 7 16 14 29 15 21 1 25 -3 25 -24 0 -14 7 -32 15 -40 8 -9
15 -28 15 -42 0 -15 6 -36 14 -47 18 -27 27 -103 13 -112 -10 -6 -125 -32
-240 -54 -54 -11 -58 -13 -53 -34 3 -13 24 -42 46 -64 22 -22 40 -43 40 -45 0
-3 15 -21 33 -40 49 -51 77 -85 77 -94 0 -4 -25 -25 -55 -47 -31 -22 -78 -58
-106 -79 l-51 -40 -19 25 c-10 13 -19 30 -19 37 0 7 -6 15 -14 18 -8 3 -17 16
-20 30 -4 13 -11 24 -16 24 -6 0 -10 8 -10 19 0 10 -7 24 -15 31 -8 7 -15 19
-15 27 0 7 -7 16 -15 19 -8 4 -15 17 -15 30 0 13 -6 24 -12 24 -21 -1 -48 -26
-48 -44 0 -9 -4 -16 -9 -16 -5 0 -14 -12 -20 -27 -6 -16 -24 -50 -41 -78 -16
-27 -34 -62 -40 -77 -13 -30 -42 -37 -64 -15 -8 6 -24 19 -36 27 -102 69 -140
100 -140 119 0 8 21 37 48 65 106 115 152 170 152 182 0 8 -19 15 -47 19 -27
4 -59 10 -73 15 -14 5 -61 16 -104 25 -44 8 -82 18 -85 20 -3 3 0 26 7 50 7
25 12 56 12 69 0 13 7 29 15 36 8 7 15 26 15 43 0 49 49 89 64 52 3 -8 16 -15
29 -15 14 0 30 -7 37 -15 7 -8 23 -15 37 -15 13 0 26 -7 29 -15 4 -8 18 -15
34 -15 16 0 30 -7 34 -15 3 -9 18 -15 37 -15 l32 0 -7 118 c-3 64 -10 134 -15
154 -5 20 -6 39 -3 42 3 4 68 6 145 6 l140 0 -6 -85z m-3890 -157 c4 -7 8 -61
8 -120 0 -81 -3 -109 -13 -113 -8 -3 -62 -5 -122 -5 l-109 0 -7 46 c-7 51 -1
175 10 193 10 16 222 15 233 -1z m1393 -50 c3 -31 3 -85 0 -120 l-5 -63 -115
0 -115 0 -3 109 c-1 61 0 116 2 123 4 11 31 13 118 11 l113 -3 5 -57z m3000 3
c0 -6 -4 -13 -10 -16 -5 -3 -10 1 -10 9 0 9 5 16 10 16 6 0 10 -4 10 -9z m20
-80 c0 -6 -4 -13 -10 -16 -5 -3 -10 1 -10 9 0 9 5 16 10 16 6 0 10 -4 10 -9z
m-13 -133 c-2 -13 -4 -3 -4 22 0 25 2 35 4 23 2 -13 2 -33 0 -45z m-33 -90 c8
-5 7 -8 -1 -8 -7 0 -13 -12 -13 -26 0 -14 -5 -34 -10 -45 -7 -13 -7 -19 0 -19
14 0 13 -33 -2 -48 -10 -10 -10 -15 1 -22 12 -7 13 -11 1 -25 -10 -12 -10 -19
-2 -27 7 -7 12 -33 12 -59 0 -28 5 -50 13 -53 10 -5 10 -7 0 -12 -7 -3 -13
-12 -13 -19 0 -7 -7 -15 -15 -19 -8 -3 -15 -10 -15 -16 0 -5 7 -10 15 -10 8 0
15 -4 15 -10 0 -5 -18 -10 -40 -10 -22 0 -40 -4 -40 -10 0 -13 -37 -50 -50
-50 -5 0 -10 -18 -10 -40 0 -38 -2 -40 -30 -40 -28 0 -30 -2 -30 -40 l0 -40
60 0 60 0 0 -40 c0 -22 -5 -40 -10 -40 -6 0 -22 -12 -35 -27 -19 -21 -27 -25
-33 -15 -11 16 -34 8 -50 -18 -11 -18 -10 -20 18 -20 l30 0 0 -80 0 -80 -40 0
c-27 0 -40 4 -40 14 0 7 -6 19 -14 25 -11 9 -13 26 -9 67 5 46 3 54 -11 54
-14 0 -16 15 -17 113 -1 140 -3 160 -17 165 -25 8 -10 44 42 97 44 44 55 52
59 38 3 -13 5 -12 6 6 1 16 5 21 16 17 8 -3 15 -1 15 4 0 6 7 10 15 10 8 0 15
4 15 9 0 5 14 16 30 25 19 9 30 11 30 4 0 -6 3 -8 7 -5 3 4 -2 16 -12 27 -16
17 -16 24 -5 44 7 14 10 35 7 48 -22 91 -30 116 -43 136 -14 21 -14 25 1 43
14 14 22 16 36 8 13 -6 19 -6 19 1 0 5 7 10 15 10 8 0 15 -7 15 -15 0 -8 5
-15 10 -15 6 0 10 7 10 15 0 8 4 15 9 15 5 0 7 10 5 23 -2 12 -1 15 2 7 4 -8
12 -18 18 -22z m-9734 -38 c0 -25 -3 -29 -22 -27 -38 6 -37 57 2 57 16 0 20
-7 20 -30z m1480 -115 c52 -26 126 -109 145 -163 9 -26 21 -56 27 -66 11 -21
32 -452 23 -467 -4 -5 -104 -9 -235 -9 -199 0 -229 -2 -234 -16 -3 -9 -6 -53
-6 -98 0 -71 3 -88 22 -112 31 -41 37 -44 90 -44 41 0 52 5 79 32 17 18 33 45
36 60 l6 28 119 0 120 0 -4 -52 c-3 -29 -18 -80 -33 -112 -28 -57 -85 -126
-105 -126 -6 0 -10 -4 -10 -10 0 -5 -18 -14 -40 -20 -22 -6 -40 -15 -40 -20 0
-6 -51 -10 -122 -10 -101 0 -129 3 -163 20 -73 36 -165 140 -165 189 0 9 -6
25 -14 36 -43 64 -40 729 4 743 6 2 10 13 10 25 1 47 99 171 143 182 15 4 27
11 27 15 0 26 268 21 320 -5z m857 -1 c24 -11 43 -23 43 -27 0 -5 14 -20 30
-34 46 -38 84 -116 101 -208 11 -57 30 -415 23 -427 -3 -4 -110 -8 -239 -8
-203 0 -234 -2 -239 -16 -12 -31 -6 -161 9 -191 27 -55 48 -66 111 -61 38 3
59 10 65 21 5 9 16 23 24 31 8 8 15 26 15 40 l0 26 126 0 126 0 -6 -35 c-3
-19 -9 -51 -12 -70 -3 -19 -12 -40 -20 -46 -8 -6 -14 -19 -14 -28 0 -10 -9
-27 -20 -39 -11 -12 -20 -26 -20 -32 0 -5 -6 -10 -14 -10 -8 0 -16 -7 -20 -15
-3 -8 -12 -15 -20 -15 -7 0 -16 -7 -20 -15 -3 -8 -16 -15 -29 -15 -14 0 -30
-7 -37 -15 -10 -12 -38 -15 -130 -15 -97 0 -126 4 -164 20 -25 12 -46 25 -46
30 0 6 -7 10 -15 10 -8 0 -15 7 -15 15 0 8 -7 15 -15 15 -8 0 -15 6 -15 14 0
8 -7 16 -15 20 -8 3 -15 14 -15 24 0 11 -7 25 -15 32 -8 7 -15 25 -15 39 0 15
-7 36 -15 47 -22 29 -22 675 0 698 8 8 15 28 15 44 0 16 7 35 15 42 8 7 15 19
15 27 0 7 7 16 15 19 8 4 15 10 15 15 0 12 66 79 78 79 5 0 15 6 22 14 16 21
49 25 180 21 86 -2 126 -7 157 -21z m903 -9 c47 -30 79 -63 80 -81 0 -7 7 -14
15 -18 8 -3 15 -17 15 -31 0 -14 7 -39 15 -56 14 -25 15 -84 13 -416 -2 -298
-6 -387 -15 -391 -7 -2 -13 -19 -13 -38 0 -22 -6 -37 -15 -40 -8 -4 -15 -13
-15 -21 0 -17 -59 -73 -77 -73 -7 0 -16 -7 -21 -16 -13 -23 -215 -24 -241 0
-10 9 -23 16 -29 16 -7 0 -12 7 -12 16 0 13 -3 14 -15 4 -12 -10 -15 -70 -17
-394 l-3 -381 -122 -3 -123 -3 0 28 c-1 15 -1 453 0 973 l0 945 125 3 c119 2
125 2 125 -17 0 -23 19 -38 29 -24 3 6 24 20 46 32 34 19 52 22 125 19 72 -4
92 -8 130 -33z m825 10 c22 -11 46 -26 53 -33 8 -6 22 -17 33 -22 10 -6 19
-17 19 -24 0 -8 7 -16 15 -20 8 -3 15 -15 15 -26 0 -11 4 -20 10 -20 10 0 15
-28 24 -122 l6 -57 -119 -3 -118 -3 -17 47 c-12 35 -26 52 -49 65 -40 20 -103
22 -142 3 -26 -13 -30 -21 -33 -63 -3 -45 -1 -50 44 -92 25 -25 50 -45 55 -45
5 0 17 -8 27 -17 32 -31 76 -67 102 -84 56 -37 180 -157 180 -175 0 -7 7 -14
15 -14 9 0 15 -9 15 -24 0 -13 6 -26 13 -28 8 -3 13 -42 15 -137 3 -118 1
-136 -18 -176 -12 -25 -26 -45 -31 -45 -5 0 -9 -7 -9 -15 0 -8 -9 -15 -19 -15
-11 0 -21 -5 -23 -11 -10 -29 -84 -43 -242 -46 -130 -3 -162 -1 -182 12 -13 8
-30 15 -38 15 -8 0 -19 6 -23 13 -4 6 -16 17 -27 22 -38 21 -77 91 -93 166
-27 125 -37 114 110 117 l127 3 0 -28 c1 -67 85 -113 171 -94 55 12 71 35 66
95 -4 43 -10 53 -59 100 -31 28 -71 62 -89 76 -18 14 -41 33 -51 43 -10 9 -25
17 -33 17 -8 0 -15 3 -15 8 -1 4 -24 25 -53 46 -53 40 -128 122 -151 167 -16
32 -29 101 -29 159 0 59 13 130 24 130 5 0 9 7 9 16 0 24 77 93 134 120 48 23
60 24 196 21 120 -2 152 -6 185 -22z m1297 6 c10 -9 15 -1161 5 -1161 -5 0 -6
-4 -3 -9 4 -5 3 -16 0 -25 -5 -13 -25 -16 -114 -16 -75 0 -111 4 -116 12 -8
13 -14 1148 -7 1185 3 12 12 23 21 25 28 6 207 -3 214 -11z m300 10 l97 -1 6
-37 c3 -21 13 -50 21 -65 8 -14 14 -39 14 -55 0 -16 6 -37 14 -48 7 -11 16
-38 19 -60 10 -73 23 -130 34 -150 6 -11 14 -39 18 -62 4 -24 11 -45 16 -49 5
-3 9 -20 9 -37 1 -18 7 -43 15 -57 8 -14 14 -40 15 -58 0 -48 24 -36 28 14 2
21 10 43 18 47 8 5 14 24 14 46 0 22 6 44 15 51 9 8 15 30 15 60 0 30 6 52 15
60 9 7 15 30 15 54 0 22 7 50 15 60 8 11 15 35 15 54 0 18 7 40 15 48 8 9 15
27 15 42 -1 50 33 142 53 142 21 1 189 1 217 0 25 0 28 -46 5 -76 -8 -10 -15
-33 -15 -49 0 -17 -9 -47 -20 -68 -11 -20 -20 -49 -20 -63 0 -14 -6 -38 -14
-52 -8 -15 -18 -54 -24 -87 -9 -57 -45 -193 -77 -296 -8 -26 -15 -60 -15 -75
0 -16 -7 -38 -15 -48 -8 -11 -15 -36 -15 -56 0 -20 -7 -45 -15 -56 -8 -10 -15
-32 -15 -49 0 -16 -7 -41 -15 -55 -8 -14 -14 -41 -15 -60 0 -20 -6 -45 -14
-56 -8 -11 -16 -31 -18 -44 -3 -25 -4 -25 -128 -28 l-125 -3 -18 30 c-9 16
-17 45 -17 64 0 19 -7 40 -15 47 -9 7 -15 29 -15 55 0 26 -6 48 -15 55 -9 8
-15 30 -15 57 0 26 -6 51 -15 59 -9 9 -15 34 -15 60 0 32 -4 44 -15 44 -11 0
-15 11 -15 43 0 24 -7 52 -15 63 -8 10 -15 37 -15 59 0 22 -7 49 -15 59 -8 11
-15 36 -15 57 0 20 -7 42 -15 49 -8 7 -15 29 -15 49 0 21 -7 46 -15 57 -8 10
-15 37 -15 60 0 22 -3 44 -7 48 -7 7 -16 36 -45 155 -11 48 -4 59 35 55 12 -1
66 -3 119 -3z m1094 -4 c12 -11 14 -1149 3 -1185 l-11 -33 -111 3 -112 3 -3
604 c-1 357 2 607 7 610 13 8 219 6 227 -2z m374 -22 c0 -34 16 -39 41 -14 35
35 83 49 166 49 61 0 87 -5 118 -21 54 -29 115 -92 115 -118 0 -12 7 -24 15
-27 10 -4 15 -21 15 -53 0 -26 7 -73 15 -104 12 -47 15 -137 15 -482 l0 -425
-114 0 c-63 0 -121 3 -130 6 -14 5 -16 56 -16 465 l0 460 -30 29 c-17 16 -42
33 -56 36 -54 14 -124 -18 -124 -56 0 -10 -7 -31 -15 -46 -13 -24 -15 -97 -15
-461 l0 -433 -114 0 c-100 0 -115 2 -120 18 -3 9 -5 283 -3 607 l2 590 105 5
c58 3 111 3 118 1 6 -2 12 -14 12 -26z m1025 10 c17 -11 36 -25 43 -32 21 -20
29 -16 36 17 l6 30 115 0 115 0 0 -837 c0 -774 -2 -842 -18 -893 -35 -108 -75
-153 -172 -195 -61 -27 -298 -28 -345 -2 -16 9 -34 17 -38 17 -16 0 -88 75
-102 105 -41 91 -45 109 -45 226 l0 118 53 6 c28 4 79 3 112 -2 l60 -8 3 -55
c2 -30 7 -59 12 -65 5 -6 12 -30 16 -53 4 -23 11 -42 16 -42 5 0 18 -9 30 -20
34 -32 89 -27 126 11 44 45 52 98 52 329 0 171 -2 200 -15 200 -8 0 -15 -4
-15 -9 0 -5 -19 -19 -42 -31 -33 -17 -58 -21 -131 -21 -98 0 -139 13 -185 61
-27 27 -72 116 -72 140 0 9 -5 21 -10 26 -15 15 -8 746 8 801 25 89 69 144
142 181 38 19 57 22 130 19 63 -2 93 -8 115 -22z m-9148 -132 c-2 -16 -4 -3
-4 27 0 30 2 43 4 28 2 -16 2 -40 0 -55z m6984 53 c9 -11 -1 -46 -12 -46 -5 0
-9 -11 -9 -25 0 -38 -15 -30 -30 16 -13 38 -12 43 4 55 20 14 37 14 47 0z
m-6951 -136 c0 -5 -4 -10 -10 -10 -5 0 -10 5 -10 10 0 6 5 10 10 10 6 0 10 -4
10 -10z m907 -46 c-3 -3 -12 -4 -19 -1 -8 3 -5 6 6 6 11 1 17 -2 13 -5z m868
-136 c3 -39 1 -47 -14 -51 -15 -3 -20 2 -25 26 -3 17 -4 32 -1 35 3 3 5 -2 5
-11 0 -9 5 -17 10 -17 6 0 10 17 10 37 0 49 9 37 15 -19z m5579 -398 c-6 -43
-7 -44 -18 -20 -6 14 -16 31 -23 38 -18 19 -16 69 6 128 10 28 22 69 27 90 7
32 10 18 12 -76 2 -63 0 -135 -4 -160z m3136 -210 c40 0 52 -4 68 -25 11 -14
25 -25 31 -25 6 0 11 -5 11 -11 0 -6 11 -20 25 -31 14 -11 25 -28 25 -39 0
-11 7 -22 15 -25 11 -5 15 -22 15 -69 0 -38 4 -65 11 -67 18 -6 1 -478 -17
-478 -11 0 -14 -18 -14 -80 0 -47 4 -80 10 -80 6 0 10 -47 10 -120 0 -73 4
-120 10 -120 6 0 10 -18 10 -40 0 -22 -4 -40 -10 -40 -5 0 -10 -18 -10 -40 0
-22 5 -40 10 -40 6 0 10 -33 10 -80 0 -47 -4 -80 -10 -80 -5 0 -10 -13 -10
-30 0 -28 -2 -30 -40 -30 l-40 0 0 56 c0 44 -3 55 -14 51 -18 -7 -22 4 -31 78
-5 35 -15 65 -26 76 -20 20 -25 39 -10 39 6 0 3 12 -5 28 -16 31 -18 52 -4 52
11 0 11 73 -1 80 -9 7 -29 180 -29 260 0 59 -14 82 -23 38 -2 -14 -3 -11 -2 6
1 16 -4 41 -11 56 -9 16 -16 85 -20 181 -4 85 -10 161 -15 170 -15 30 -11 279
6 333 8 27 16 74 17 105 l2 56 3 -57 4 -58 49 0z m-9162 -327 c18 -4 20 -8 10
-14 -7 -5 -21 -9 -31 -9 -11 0 -32 -13 -47 -30 -17 -19 -38 -30 -54 -30 -18 0
-30 -7 -36 -22 -7 -19 -9 -16 -9 20 -1 31 -5 42 -17 42 -8 0 -13 4 -9 9 3 5 0
13 -6 17 -8 4 -7 9 2 15 16 10 163 12 197 2z m-283 -252 c-4 -17 -11 -31 -16
-31 -11 0 -11 0 2 39 14 39 23 34 14 -8z m4099 -54 c13 -12 25 -29 27 -37 5
-33 -15 -162 -27 -175 -8 -7 -14 -18 -14 -24 0 -17 -43 -101 -52 -101 -4 0
-14 -16 -22 -35 -22 -51 -183 -235 -206 -235 -6 0 -10 -7 -10 -15 0 -8 -7 -15
-15 -15 -7 0 -18 -6 -22 -14 -10 -19 -99 -86 -112 -86 -6 0 -11 -4 -11 -10 0
-5 -6 -10 -12 -10 -7 0 -37 -18 -66 -40 -29 -22 -59 -40 -67 -40 -8 0 -15 -4
-15 -8 0 -5 -17 -18 -39 -30 -68 -39 -188 -22 -153 21 5 6 12 39 15 72 8 84
34 182 67 250 6 11 12 36 14 56 2 20 11 51 20 68 12 23 13 31 4 31 -7 0 -3 7
9 15 12 8 27 32 33 53 7 20 16 41 21 47 5 5 9 17 9 27 0 10 7 18 18 18 11 0
26 20 42 55 14 31 32 58 41 60 9 3 24 14 34 25 10 11 26 20 37 20 10 0 18 6
18 14 0 8 14 18 33 21 17 4 48 16 67 26 29 15 59 18 172 19 129 0 138 -1 162
-23z m2441 -37 c37 -41 -15 -111 -56 -74 -23 21 -24 42 -3 72 19 27 36 28 59
2z m2872 -202 c-3 -8 -6 -5 -6 6 -1 11 2 17 5 13 3 -3 4 -12 1 -19z m223 -818
c0 -22 5 -40 10 -40 6 0 10 -18 10 -40 0 -46 -5 -49 -31 -17 -24 29 -28 137
-4 137 11 0 15 -11 15 -40z m-10111 -301 c16 -19 22 -21 30 -10 6 10 12 5 22
-18 8 -17 17 -31 20 -31 4 0 2 -19 -3 -42 -5 -24 -11 -61 -13 -83 -10 -96 -17
-125 -36 -149 -11 -14 -19 -31 -18 -38 4 -32 -2 -47 -16 -42 -10 4 -15 0 -15
-10 0 -9 -9 -24 -20 -33 -11 -10 -20 -23 -20 -29 0 -6 -6 -17 -14 -23 -11 -9
-18 -6 -34 14 -18 23 -26 25 -96 25 l-76 0 0 85 0 85 -40 0 -40 0 0 40 0 40
40 0 40 0 0 40 c0 33 3 40 20 40 17 0 20 7 20 48 0 44 12 72 31 72 4 0 9 -7
11 -16 2 -11 14 -5 43 25 37 37 43 39 92 37 41 -2 56 -8 72 -27z m-449 -119
c0 -13 -7 -20 -20 -20 -23 0 -26 10 -8 28 18 18 28 15 28 -8z m5096 -271 c22
-17 43 -37 47 -46 5 -8 7 -103 4 -211 -2 -109 -1 -271 4 -361 10 -183 5 -204
-48 -214 -42 -8 -283 19 -326 38 -20 8 -48 13 -60 10 -15 -4 -28 -1 -36 9 -8
9 -21 16 -30 16 -27 0 -162 46 -155 53 4 3 -7 9 -22 13 -41 10 -104 43 -104
54 0 6 -6 10 -12 10 -7 0 -29 16 -49 34 -64 59 -59 141 13 242 61 85 185 204
212 204 18 0 25 6 28 23 2 18 10 23 41 25 24 2 37 8 37 18 0 8 9 14 19 14 10
0 21 7 25 15 3 8 17 15 31 15 38 0 116 21 143 38 15 10 22 11 22 3 0 -7 5 -9
13 -4 6 4 41 8 76 8 40 1 66 6 69 13 6 18 16 15 58 -19z m-4824 -513 c8 -7 24
-17 37 -21 17 -5 20 -10 11 -15 -8 -5 -11 -23 -8 -51 3 -29 0 -47 -9 -54 -7
-5 -24 -54 -37 -108 -14 -53 -32 -104 -40 -112 -8 -8 -17 -20 -20 -27 -4 -9
-10 -6 -22 10 -20 27 -50 28 -72 2 -15 -17 -22 -18 -65 -8 -43 10 -48 14 -45
37 3 22 9 26 41 29 29 3 37 7 37 23 0 12 7 19 20 19 17 0 20 7 20 48 0 44 -12
72 -32 72 -4 0 -8 -9 -8 -20 0 -13 -7 -20 -20 -20 -17 0 -20 7 -20 48 0 50 12
72 40 72 9 0 25 9 35 20 19 21 45 27 45 10 0 -5 5 -10 11 -10 6 0 9 9 6 20 -3
11 -1 20 5 20 5 0 16 7 24 15 19 19 48 19 66 1z"/>
<path d="M10950 5025 c1 -26 2 -28 11 -12 8 14 8 22 0 30 -8 8 -11 3 -11 -18z"/>
<path d="M10996 4916 c3 -9 11 -16 16 -16 13 0 5 23 -10 28 -7 2 -10 -2 -6
-12z"/>
<path d="M10946 4811 c-4 -7 -5 -15 -2 -18 9 -9 19 4 14 18 -4 11 -6 11 -12 0z"/>
<path d="M10780 4631 c-13 -26 -13 -31 5 -31 9 0 15 9 15 25 0 30 -6 32 -20 6z"/>
<path d="M2573 4800 c-35 -14 -53 -71 -53 -170 0 -49 4 -90 10 -92 5 -1 57 -2
115 0 l105 3 0 89 c0 105 -18 153 -64 170 -35 12 -83 12 -113 0z"/>
<path d="M3431 4797 c-13 -6 -27 -19 -31 -27 -4 -8 -12 -25 -18 -37 -7 -13
-12 -61 -12 -108 l0 -85 114 0 115 0 3 33 c7 70 -7 183 -24 200 -36 36 -103
47 -147 24z"/>
<path d="M4298 4797 c-15 -6 -36 -23 -46 -37 -18 -23 -20 -45 -22 -250 -5
-401 -5 -394 34 -438 32 -34 38 -37 87 -35 60 3 74 16 102 103 15 47 17 88 14
295 -4 260 -13 323 -51 349 -33 21 -87 28 -118 13z"/>
<path d="M9425 4804 c-5 -1 -22 -5 -37 -8 -16 -4 -28 -13 -28 -22 0 -8 -7 -17
-15 -20 -8 -4 -15 -17 -15 -31 0 -13 -7 -37 -15 -54 -13 -24 -15 -65 -12 -237
3 -221 20 -352 43 -352 8 0 14 -6 14 -14 0 -18 22 -26 75 -26 47 0 65 12 93
63 15 28 17 66 17 322 0 257 -2 294 -17 322 -10 17 -23 35 -28 38 -16 10 -64
22 -75 19z m2 -426 c-2 -29 -3 -8 -3 47 0 55 1 79 3 53 2 -26 2 -71 0 -100z"/>
<path d="M10861 3094 c0 -11 3 -14 6 -6 3 7 2 16 -1 19 -3 4 -6 -2 -5 -13z"/>
<path d="M640 1760 c0 -33 3 -40 20 -40 17 0 20 7 20 40 0 33 -3 40 -20 40
-17 0 -20 -7 -20 -40z"/>
<path d="M640 930 c0 -5 5 -10 10 -10 6 0 10 5 10 10 0 6 -4 10 -10 10 -5 0
-10 -4 -10 -10z"/>
<path d="M8960 14250 l0 -30 -76 0 c-86 0 -104 -11 -104 -60 0 -58 8 -60 232
-60 l204 0 28 -29 c15 -16 28 -32 27 -35 -3 -29 14 -36 90 -36 72 0 79 -2 79
-20 0 -17 7 -20 40 -20 29 0 40 4 40 15 0 9 12 27 28 40 l27 25 -27 25 c-16
13 -28 33 -28 44 0 11 -18 37 -40 59 -22 21 -40 43 -40 48 0 5 -21 8 -47 6
-43 -3 -51 0 -77 27 l-30 31 -163 0 -163 0 0 -30z m-80 -90 l0 -40 -40 0 -40
0 0 40 0 40 40 0 40 0 0 -40z"/>
<path d="M8705 14110 c3 -5 8 -10 11 -10 2 0 4 5 4 10 0 6 -5 10 -11 10 -5 0
-7 -4 -4 -10z"/>
<path d="M9972 13708 c6 -18 28 -21 28 -4 0 9 -7 16 -16 16 -9 0 -14 -5 -12
-12z"/>
<path d="M10560 13681 c0 -30 -4 -41 -16 -41 -11 0 -14 -9 -12 -37 4 -52 28
-56 28 -4 0 30 4 41 16 41 11 0 14 9 12 37 -4 52 -28 56 -28 4z"/>
<path d="M5740 13360 c-13 -8 -12 -10 3 -10 9 0 17 5 17 10 0 12 -1 12 -20 0z"/>
<path d="M5884 13362 c-6 -4 -13 -15 -17 -24 -6 -16 1 -18 66 -18 59 1 68 3
52 12 -11 7 -26 18 -33 25 -15 14 -51 17 -68 5z"/>
<path d="M6143 13323 c-23 -4 -30 -17 -15 -27 5 -3 32 -8 60 -12 48 -6 52 -5
52 13 0 15 -9 22 -31 27 -17 3 -34 5 -38 5 -3 -1 -16 -4 -28 -6z"/>
<path d="M4285 13255 c-5 -2 -23 -6 -40 -10 -26 -6 -28 -8 -11 -17 12 -7 21
-7 29 1 6 6 21 11 34 11 13 0 23 5 23 10 0 10 -15 12 -35 5z"/>
<path d="M4060 13190 c0 -5 5 -10 10 -10 6 0 10 5 10 10 0 6 -4 10 -10 10 -5
0 -10 -4 -10 -10z"/>
<path d="M3912 13142 c-20 -2 -32 -8 -29 -15 5 -18 39 -20 61 -4 23 17 12 24
-32 19z"/>
<path d="M3740 13083 c-8 -3 -19 -12 -23 -19 -4 -8 -26 -17 -48 -20 -22 -4
-45 -14 -52 -24 -13 -18 -17 -20 -44 -20 -13 0 -14 -3 -5 -12 14 -14 75 -13
80 1 2 6 15 11 28 11 16 0 28 8 36 25 7 15 24 28 41 33 17 4 32 13 35 20 4 12
-21 15 -48 5z"/>
<path d="M3515 12950 c-3 -5 3 -10 14 -10 11 0 23 5 26 10 3 6 -3 10 -14 10
-11 0 -23 -4 -26 -10z"/>
<path d="M7245 12930 c-8 -12 25 -21 42 -11 12 6 10 9 -11 13 -15 3 -29 2 -31
-2z"/>
<path d="M7280 12901 c0 -6 9 -11 20 -11 11 0 23 -7 26 -15 4 -8 12 -15 20
-15 8 0 14 -4 14 -8 0 -5 16 -17 37 -28 20 -10 47 -29 61 -41 13 -12 33 -25
43 -28 11 -4 19 -10 19 -15 0 -4 11 -11 24 -14 13 -3 48 -26 78 -51 30 -25 61
-45 69 -45 8 0 22 -9 32 -20 9 -11 20 -20 24 -20 18 0 35 19 29 29 -4 6 -12 9
-17 6 -5 -4 -20 5 -33 19 -13 14 -30 26 -37 26 -10 0 -11 2 -2 8 8 5 1 16 -23
36 -19 15 -39 39 -44 52 -6 15 -15 22 -24 18 -7 -3 -20 3 -28 14 -7 11 -42 34
-78 52 -36 18 -73 37 -84 42 -30 16 -126 23 -126 9z"/>
<path d="M3180 12750 c0 -5 5 -10 10 -10 6 0 10 5 10 10 0 6 -4 10 -10 10 -5
0 -10 -4 -10 -10z"/>
<path d="M3105 12694 c-13 -13 -14 -19 -4 -25 15 -9 49 11 49 28 0 18 -26 16
-45 -3z"/>
<path d="M3040 12635 c0 -8 -8 -15 -17 -15 -18 -1 -64 -30 -47 -30 11 0 -82
-87 -108 -101 -17 -9 -17 -29 1 -29 4 0 25 18 47 40 21 22 46 40 55 40 9 0 23
10 32 23 8 12 26 34 41 48 21 22 24 28 11 33 -9 3 -15 0 -15 -9z"/>
<path d="M2418 12521 c-53 -11 -104 -48 -127 -92 -12 -25 -19 -27 -95 -33
-100 -7 -82 -7 -204 0 -96 6 -105 5 -123 -15 -11 -11 -24 -21 -28 -21 -5 0
-17 -17 -27 -37 -17 -34 -19 -64 -19 -283 0 -239 1 -246 24 -293 22 -42 31
-49 75 -62 56 -17 104 -19 159 -6 42 10 157 -3 197 -23 l25 -12 5 -649 c5
-625 6 -652 25 -690 11 -22 36 -48 55 -60 36 -20 109 -24 336 -15 43 2 102 -4
147 -15 76 -18 77 -18 146 5 65 21 76 21 137 10 100 -19 252 -8 306 22 31 17
44 32 50 56 5 18 13 30 18 27 6 -4 10 1 10 9 0 8 9 17 20 21 11 3 27 22 36 41
9 19 20 34 25 34 5 0 9 6 9 13 0 7 16 19 36 26 44 16 124 7 124 -15 0 -8 3
-14 8 -14 4 0 18 -20 31 -45 13 -25 30 -45 37 -45 8 0 14 -7 14 -15 0 -8 7
-15 15 -15 8 0 15 -4 15 -9 0 -5 25 -25 55 -45 30 -20 61 -47 70 -59 10 -14
18 -18 23 -11 8 13 173 -1 204 -17 12 -7 24 -7 31 -1 22 18 200 72 236 72 27
0 44 -8 66 -31 26 -27 30 -28 36 -12 4 10 8 32 8 50 1 24 -4 33 -20 38 -18 6
-20 12 -14 43 4 21 10 38 15 40 4 2 23 32 40 68 18 35 38 64 45 64 7 0 16 6
18 13 4 9 8 8 16 -3 9 -13 11 -13 11 2 0 12 5 16 18 12 11 -4 8 1 -8 15 -14
11 -30 21 -37 21 -22 0 -26 67 -27 429 -2 307 -4 361 -18 396 -10 22 -18 33
-18 25 -1 -9 -5 -6 -10 8 -5 12 -14 22 -19 22 -5 0 -12 8 -16 19 -5 17 -72 90
-107 116 -80 61 -330 99 -398 60 -14 -8 -36 -15 -50 -15 -14 -1 -43 -12 -65
-25 -22 -14 -47 -28 -55 -32 -8 -3 -19 -12 -23 -20 -9 -15 -47 -18 -47 -3 0
18 -66 80 -84 80 -10 0 -25 4 -35 9 -9 5 -61 11 -114 12 -53 2 -102 6 -108 10
-10 6 -14 87 -11 216 2 45 4 51 21 46 11 -3 22 -15 25 -27 3 -12 20 -33 38
-46 31 -24 40 -25 168 -25 127 0 137 1 167 24 60 45 78 178 45 341 -24 124
-109 240 -201 277 -20 8 -52 22 -71 31 -28 13 -66 16 -185 16 l-150 -1 -79
-38 c-90 -43 -154 -101 -186 -172 -12 -27 -26 -56 -31 -65 -5 -10 -9 -33 -9
-52 0 -26 -5 -36 -20 -41 -24 -8 -238 -13 -257 -7 -19 6 -16 117 3 158 15 30
15 37 0 81 -19 54 -37 78 -82 111 -26 18 -49 23 -130 26 -55 3 -115 2 -136 -3z
m1229 -120 c108 -37 155 -87 191 -208 24 -77 30 -210 12 -244 -10 -17 -22 -19
-114 -19 l-104 0 -11 68 c-7 37 -14 82 -18 99 -3 20 -19 45 -39 63 -46 40 -92
40 -134 3 -28 -25 -32 -38 -46 -127 -10 -67 -14 -159 -12 -290 l3 -191 180 -5
180 -5 3 -112 3 -113 -163 0 c-90 0 -173 -3 -185 -6 l-23 -6 0 -489 0 -488
-97 -3 c-54 -2 -108 -2 -121 0 l-22 3 3 907 c3 950 2 931 46 1034 9 21 22 38
29 38 6 0 12 6 12 13 0 21 88 71 159 89 78 20 189 16 268 -11z m-1013 -7 c3
-9 6 -476 6 -1039 l0 -1024 -37 -3 c-21 -2 -75 -2 -120 0 l-83 3 0 1033 c0
568 3 1036 7 1039 3 4 55 7 114 7 88 0 108 -3 113 -16z m-609 -364 l0 -245
-57 -3 -58 -3 0 251 0 251 58 -3 57 -3 0 -245z m250 0 l0 -245 -62 -3 -63 -3
0 251 0 251 63 -3 62 -3 0 -245z m719 14 c13 -5 16 -26 16 -125 0 -105 -2
-121 -17 -127 -10 -4 -61 -7 -113 -7 -52 0 -103 3 -112 7 -16 6 -18 22 -18
127 0 105 2 120 18 124 26 7 208 8 226 1z m16 -372 c0 -29 -8 -31 -46 -13
l-36 16 28 6 c48 11 54 10 54 -9z m0 -732 l0 -611 -127 3 -128 3 -3 585 c-1
322 0 595 3 608 5 21 9 22 130 22 l125 0 0 -610z m1336 595 c4 -8 17 -15 30
-15 14 0 27 -7 30 -15 4 -8 10 -15 16 -15 27 0 108 -124 108 -167 0 -10 4 -23
9 -28 12 -12 18 -67 27 -266 4 -86 4 -168 0 -183 l-6 -26 -230 0 c-262 0 -250
5 -250 -92 0 -75 13 -113 52 -148 49 -45 97 -42 149 8 21 22 39 48 39 59 0 12
7 24 16 27 23 9 207 7 221 -2 10 -6 10 -20 1 -68 -7 -32 -15 -61 -18 -64 -3
-3 -13 -21 -24 -41 -25 -51 -75 -109 -92 -109 -8 0 -14 -7 -14 -15 0 -9 -9
-15 -22 -15 -12 0 -30 -8 -41 -17 -16 -15 -39 -18 -147 -18 -108 0 -131 3
-147 18 -11 9 -26 17 -34 17 -38 1 -111 96 -149 195 -47 118 -45 707 2 760 4
5 8 19 8 30 0 31 83 145 106 145 7 0 14 7 18 15 3 8 14 15 24 15 11 0 25 7 32
15 10 12 40 15 147 15 110 0 135 -3 139 -15z m-629 -336 c17 -17 -16 -267 -43
-321 -19 -36 -19 -118 0 -118 7 0 16 -14 20 -31 10 -53 7 -154 -6 -167 -7 -7
-34 -12 -61 -12 -38 0 -56 -6 -78 -25 -44 -37 -56 -25 -62 63 -9 122 -2 591 9
602 5 5 45 11 89 13 44 1 89 4 101 5 11 1 25 -3 31 -9z"/>
<path d="M4133 11301 c-10 -11 -23 -26 -30 -34 -14 -18 -28 -155 -19 -191 l6
-26 115 0 115 0 0 100 c0 80 -3 102 -15 106 -8 4 -13 9 -10 14 2 4 -5 17 -16
28 -27 30 -120 31 -146 3z"/>
<path d="M2796 12425 c-3 -9 -6 -24 -5 -33 0 -9 5 -4 10 12 9 32 6 48 -5 21z"/>
<path d="M9320 12378 c-87 -24 -103 -81 -101 -357 2 -197 12 -261 48 -302 35
-39 113 -55 186 -39 39 9 71 9 122 1 80 -12 166 4 191 36 44 56 48 73 52 266
6 257 -9 332 -75 377 -33 23 -42 24 -211 26 -98 0 -193 -3 -212 -8z m135 -348
l0 -245 -62 -3 -63 -3 0 251 0 251 63 -3 62 -3 0 -245z m245 0 l0 -251 -59 3
-60 3 -4 228 c-3 126 -2 237 0 248 5 16 15 19 64 19 l59 0 0 -250z"/>
<path d="M8235 11967 c-15 -15 -6 -67 11 -67 8 0 14 -6 14 -14 0 -20 30 -43
31 -25 2 26 -3 44 -24 80 -16 25 -25 33 -32 26z"/>
<path d="M2262 11620 c0 -14 2 -19 5 -12 2 6 2 18 0 25 -3 6 -5 1 -5 -13z"/>
<path d="M2169 11534 c-8 -15 -27 -41 -44 -59 -70 -75 -105 -116 -105 -121 0
-3 -15 -24 -34 -47 -19 -23 -42 -61 -52 -84 -12 -28 -25 -43 -36 -43 -22 0
-23 -16 -2 -24 24 -9 34 -7 28 7 -5 13 53 41 60 28 16 -25 106 19 106 53 0 9
7 16 15 16 10 0 15 10 15 28 0 15 9 38 20 52 11 14 20 32 20 41 0 9 11 36 24
60 13 24 26 61 29 82 5 31 3 37 -12 37 -10 0 -24 -12 -32 -26z"/>
<path d="M1780 11028 c-11 -18 -20 -36 -20 -40 0 -5 -7 -8 -15 -8 -8 0 -24
-13 -36 -29 -11 -16 -32 -35 -45 -42 -13 -7 -41 -38 -61 -70 -21 -32 -48 -64
-60 -70 -13 -7 -23 -18 -23 -26 0 -7 -3 -13 -7 -13 -5 0 -21 -18 -37 -40 -17
-22 -35 -40 -41 -40 -12 0 -38 -36 -45 -65 -3 -11 -15 -24 -26 -30 -24 -12
-54 -40 -54 -51 0 -10 -50 -54 -62 -54 -4 0 -8 -6 -8 -12 -1 -16 -95 -118
-109 -118 -6 0 -11 -4 -11 -9 0 -5 -28 -38 -62 -73 -34 -35 -61 -67 -60 -71 1
-4 -6 -10 -15 -14 -25 -9 -53 -42 -69 -80 -15 -34 -29 -42 -37 -20 -3 6 -6 2
-6 -10 -1 -34 11 -28 61 25 25 26 54 52 64 59 11 6 18 16 16 22 -1 6 9 16 22
21 14 5 33 21 42 35 9 14 29 32 43 40 15 7 33 25 41 39 7 14 19 26 26 26 7 0
19 10 25 23 7 12 52 62 100 111 49 49 89 93 89 98 0 4 18 27 41 50 22 23 49
58 59 78 11 19 20 28 21 20 0 -8 4 -4 8 10 4 14 15 26 25 28 10 2 34 22 54 45
21 23 45 49 55 59 9 10 17 23 17 28 0 13 10 26 78 95 28 30 52 59 52 64 0 5 3
16 6 25 11 29 -16 17 -36 -16z"/>
<path d="M2069 10091 c-25 -26 -31 -40 -46 -110 -7 -36 -18 -84 -24 -106 -24
-97 -32 -199 -20 -257 12 -54 14 -58 41 -58 24 0 30 -6 40 -36 23 -68 30 -14
31 235 1 154 5 241 12 241 11 0 2 90 -11 101 -4 4 -14 -1 -23 -10z m11 -521
c0 -5 -4 -10 -10 -10 -5 0 -10 5 -10 10 0 6 5 10 10 10 6 0 10 -4 10 -10z"/>
<path d="M6143 9886 c-37 -42 -39 -178 -4 -210 27 -24 48 -10 60 39 14 55 13
100 -3 145 -14 38 -34 48 -53 26z"/>
<path d="M4743 9752 c-13 -2 -23 -9 -23 -17 0 -7 -6 -15 -14 -18 -8 -3 -18
-26 -21 -51 -4 -25 -16 -53 -26 -62 -25 -23 -24 -46 5 -73 17 -16 33 -21 57
-19 33 4 34 6 41 59 4 30 10 70 13 89 4 20 3 49 -2 65 -6 24 -13 29 -30 27z"/>
<path d="M4113 9697 c-4 -7 -23 -23 -40 -36 -25 -17 -40 -21 -67 -16 -39 8
-44 3 -68 -74 l-17 -53 29 -11 c67 -25 46 -64 -57 -100 -78 -28 -160 -66 -240
-112 -23 -13 -80 -61 -128 -107 -48 -46 -98 -87 -111 -91 -32 -11 -72 14 -86
54 -7 21 -16 29 -35 29 -14 0 -37 13 -55 30 -16 17 -33 30 -38 30 -4 0 -11 8
-15 18 -7 16 -8 15 -15 -3 -15 -36 -11 -169 5 -191 8 -10 15 -14 15 -8 0 17
81 -5 97 -25 15 -21 24 -67 16 -86 -8 -23 -64 -44 -90 -34 -18 7 -23 5 -23 -7
0 -8 -4 -13 -9 -10 -14 9 -19 -65 -9 -154 5 -47 11 -150 15 -230 4 -110 10
-153 23 -177 9 -18 20 -29 24 -26 4 4 10 3 14 -2 4 -6 25 -20 47 -32 108 -59
145 -76 152 -70 12 12 6 78 -12 127 -19 52 -24 342 -6 348 6 2 13 20 17 40 3
20 12 47 20 59 8 12 14 31 14 43 0 11 3 20 8 20 4 0 26 28 49 63 23 34 53 74
65 88 13 14 37 42 55 62 17 20 53 47 80 61 26 14 44 25 38 26 -22 1 52 31 124
51 135 37 241 51 288 40 23 -6 61 -11 85 -11 24 0 49 -5 55 -11 5 -5 41 -14
79 -20 38 -5 71 -14 72 -19 2 -6 13 -10 23 -10 11 0 57 -25 102 -56 70 -48 87
-55 116 -50 43 7 44 8 44 55 0 42 -11 57 -109 155 -132 133 -226 176 -386 176
-82 0 -130 21 -150 65 -15 32 12 95 40 95 10 0 27 7 38 15 10 8 31 15 46 15
15 0 29 4 32 9 5 8 -35 31 -57 31 -7 0 -23 9 -37 20 -29 23 -56 25 -67 7z"/>
<path d="M6505 9650 c3 -5 1 -10 -5 -10 -7 0 -5 -6 4 -15 17 -18 141 -21 151
-5 4 7 -3 8 -20 4 -19 -5 -25 -3 -23 7 2 8 8 17 13 21 6 4 -21 8 -58 8 -43 0
-66 -4 -62 -10z"/>
<path d="M6866 9596 l-38 -12 26 -24 c14 -14 26 -30 26 -37 0 -6 9 -14 19 -18
21 -6 34 -31 25 -47 -14 -22 -50 -23 -132 -5 -48 10 -123 21 -167 24 -71 4
-86 2 -135 -21 -77 -36 -160 -85 -190 -113 -14 -13 -40 -34 -57 -46 -18 -12
-33 -27 -33 -34 0 -6 -3 -13 -7 -15 -5 -1 -29 -30 -55 -63 -27 -33 -52 -65
-58 -72 -16 -20 -12 -80 6 -87 41 -16 76 -1 136 57 10 9 20 17 23 17 3 0 24
12 48 27 118 76 193 96 372 98 132 2 292 -9 225 -15 l-25 -2 25 -8 c14 -4 39
-8 57 -9 17 -1 38 -8 47 -16 8 -8 22 -15 30 -15 9 0 16 -3 16 -7 0 -5 24 -21
53 -37 44 -25 88 -65 172 -157 8 -9 15 -23 15 -31 0 -9 7 -21 15 -28 8 -7 15
-21 15 -32 0 -10 7 -21 15 -24 8 -4 15 -17 15 -30 0 -13 4 -24 10 -24 31 0 74
-203 73 -350 0 -40 -12 -159 -18 -177 -5 -15 21 -43 41 -43 24 0 104 93 104
122 0 21 16 24 23 6 4 -10 6 -10 6 0 1 6 9 12 20 12 29 0 32 -45 15 -260 -9
-107 -19 -247 -23 -310 -4 -69 -14 -133 -25 -160 -35 -90 -48 -183 -25 -178 6
2 20 -19 30 -46 25 -61 36 -307 40 -841 3 -371 6 -445 19 -445 4 0 10 246 14
548 4 301 14 642 22 757 9 137 12 288 9 435 -3 124 -5 256 -6 294 0 43 -6 77
-15 90 -18 26 -18 36 0 36 10 0 12 9 7 38 -9 50 -6 85 13 157 19 72 21 257 4
306 -16 46 -31 59 -67 59 -17 0 -31 4 -31 10 0 5 -7 7 -15 4 -10 -4 -15 0 -15
14 0 11 -7 25 -15 32 -8 7 -15 16 -15 21 0 4 -15 29 -32 54 -18 26 -40 57 -48
69 -61 92 -149 175 -274 257 -64 43 -116 97 -116 122 -2 114 -24 175 -57 163
-7 -3 -28 1 -47 9 -40 17 -38 17 -90 1z"/>
<path d="M2066 9465 c4 -8 8 -15 10 -15 2 0 4 7 4 15 0 8 -4 15 -10 15 -5 0
-7 -7 -4 -15z"/>
<path d="M7650 9360 c-30 -19 -12 -385 20 -405 4 -3 22 7 40 21 26 23 35 25
55 16 36 -17 93 9 101 46 3 15 8 34 10 44 6 21 -11 31 -47 30 -31 -1 -69 37
-69 69 0 32 -56 159 -71 159 -5 0 -9 7 -9 15 0 17 -9 19 -30 5z"/>
<path d="M1900 9175 c-7 -8 -18 -15 -25 -15 -7 0 -20 -16 -30 -36 -19 -41 -15
-79 15 -142 11 -23 20 -45 20 -50 0 -5 9 -21 21 -36 27 -35 66 -35 75 0 10 41
-1 177 -18 209 -45 87 -44 86 -58 70z"/>
<path d="M2130 9180 c0 -21 17 -46 25 -38 4 4 0 17 -9 30 -10 14 -16 17 -16 8z"/>
<path d="M6600 9170 c-8 -4 -45 -23 -83 -41 -37 -18 -81 -46 -98 -61 -16 -15
-33 -28 -37 -28 -4 0 -24 -18 -44 -40 -49 -51 -50 -85 -5 -128 18 -18 39 -32
46 -32 10 0 12 -14 9 -57 -4 -47 -10 -60 -34 -80 -16 -12 -40 -23 -52 -23 -37
0 -80 -30 -84 -59 -7 -52 19 -283 43 -376 15 -59 41 -124 51 -125 3 0 20 -12
36 -27 50 -46 58 -51 98 -58 22 -4 34 -3 27 2 -14 10 -33 84 -33 128 0 17 9
41 20 55 11 14 20 33 20 43 0 9 7 17 15 17 8 0 15 4 15 9 0 5 13 3 29 -5 22
-11 39 -12 70 -5 28 6 79 5 154 -4 84 -10 114 -10 120 -1 4 6 5 -1 1 -16 -5
-23 -2 -28 19 -33 14 -4 26 -14 26 -23 0 -10 1 -40 2 -68 1 -28 -2 -61 -6 -72
-5 -18 -2 -22 15 -22 11 0 23 7 26 15 4 8 10 12 16 9 5 -3 12 3 15 15 3 11 9
19 13 16 5 -3 27 23 49 57 23 35 45 68 51 75 5 7 10 18 10 26 0 7 12 38 27 68
25 50 27 63 27 189 1 271 -68 446 -214 550 -41 29 -126 70 -146 70 -8 0 -14 4
-14 9 0 28 -161 53 -200 31z"/>
<path d="M4130 9153 c-39 -5 -117 -25 -171 -45 -48 -18 -143 -101 -190 -167
-42 -58 -46 -72 -26 -93 39 -43 50 -60 57 -94 13 -55 -11 -89 -83 -122 l-57
-26 5 -91 c3 -49 10 -114 16 -143 6 -30 12 -70 14 -90 1 -20 8 -38 14 -40 6
-2 11 -15 11 -28 0 -14 7 -27 15 -30 8 -4 15 -14 15 -24 0 -23 149 -170 172
-170 22 0 23 16 4 36 -8 8 -20 39 -26 69 -10 47 -9 60 6 92 10 21 25 43 34 50
13 10 13 12 -2 18 -22 9 -24 25 -3 25 8 0 15 5 15 11 0 8 4 8 14 0 10 -8 63
-12 163 -12 176 0 217 -8 238 -49 23 -44 20 -152 -6 -201 -11 -23 -18 -44 -15
-47 6 -5 50 14 91 40 25 17 54 50 55 64 0 5 8 28 19 50 45 93 70 210 71 322 0
29 5 62 10 72 11 21 -2 201 -23 300 -16 80 -99 196 -169 236 -76 44 -201 95
-223 92 -5 -1 -26 -3 -45 -5z"/>
<path d="M2200 8856 c0 -35 18 -78 30 -71 5 3 10 -1 10 -9 0 -9 -6 -16 -14
-16 -42 0 -28 -694 15 -721 8 -5 10 -22 6 -52 -4 -24 -3 -48 1 -52 4 -3 9
-124 10 -268 5 -359 5 -355 20 -350 9 4 12 -14 12 -68 0 -40 2 -70 4 -68 2 2
9 49 16 104 8 73 8 149 0 285 -6 102 -12 203 -13 226 -1 22 -7 47 -13 55 -7 9
-10 115 -9 319 2 168 0 309 -3 314 -2 4 -8 2 -13 -5 -5 -8 -9 67 -9 178 0 105
-3 198 -6 207 -10 26 -44 20 -44 -8z"/>
<path d="M4290 7960 c-12 -8 -9 -9 12 -8 15 1 24 6 22 10 -7 10 -16 10 -34 -2z"/>
<path d="M6580 7961 c0 -21 36 -34 107 -39 65 -4 78 -2 89 13 7 9 17 14 22 11
5 -3 17 0 26 7 14 11 -6 13 -113 15 -72 1 -131 -2 -131 -7z"/>
<path d="M3255 7366 c-15 -77 14 -313 41 -333 13 -9 20 -8 37 8 14 13 23 16
28 8 4 -7 9 -4 13 9 8 24 -13 182 -23 182 -4 0 -15 24 -25 53 -11 28 -25 59
-32 68 -8 8 -14 21 -14 27 0 26 -20 10 -25 -22z"/>
<path d="M3252 7140 c0 -14 2 -19 5 -12 2 6 2 18 0 25 -3 6 -5 1 -5 -13z"/>
<path d="M3550 6751 c0 -6 5 -13 10 -16 6 -3 10 1 10 9 0 9 -4 16 -10 16 -5 0
-10 -4 -10 -9z"/>
<path d="M7150 6730 c-37 -20 -75 -57 -105 -103 l-18 -29 39 17 c35 14 52 29
116 101 26 30 11 36 -32 14z"/>
<path d="M3650 6635 c7 -8 16 -15 21 -15 5 0 9 7 9 15 0 9 -9 15 -21 15 -18 0
-19 -2 -9 -15z"/>
<path d="M8110 5968 c-32 -70 -24 -157 13 -142 11 4 19 0 23 -10 19 -50 48 23
39 98 -4 31 -11 53 -16 50 -5 -3 -9 6 -9 20 0 41 -29 31 -50 -16z"/>
<path d="M5930 5970 c0 -5 7 -10 15 -10 8 0 15 5 15 10 0 6 -7 10 -15 10 -8 0
-15 -4 -15 -10z"/>
<path d="M5818 5923 c7 -3 16 -2 19 1 4 3 -2 6 -13 5 -11 0 -14 -3 -6 -6z"/>
<path d="M2380 5900 c0 -11 5 -20 10 -20 6 0 10 9 10 20 0 11 -4 20 -10 20 -5
0 -10 -9 -10 -20z"/>
<path d="M5680 5883 c-19 -3 -38 -11 -43 -18 -4 -7 -24 -19 -45 -26 -20 -6
-46 -18 -57 -25 -19 -14 -19 -14 5 -14 14 0 34 7 44 15 10 8 22 12 26 10 4 -3
21 -1 36 4 16 5 48 14 72 21 23 7 42 16 42 21 0 7 -27 20 -38 17 -4 0 -23 -3
-42 -5z"/>
<path d="M7633 5840 c0 -25 2 -35 4 -22 2 12 2 32 0 45 -2 12 -4 2 -4 -23z"/>
<path d="M5200 5811 c0 -5 15 -11 33 -14 17 -4 47 -9 65 -13 25 -5 32 -3 32 9
0 8 -7 18 -16 21 -24 9 -114 7 -114 -3z"/>
<path d="M5360 5780 c0 -5 19 -10 42 -10 49 0 47 5 -4 14 -24 4 -38 3 -38 -4z"/>
<path d="M7628 5750 c-3 -16 -1 -30 4 -30 4 0 8 14 8 30 0 17 -2 30 -4 30 -2
0 -6 -13 -8 -30z"/>
<path d="M2430 5576 c0 -9 5 -16 10 -16 6 0 10 4 10 9 0 6 -4 13 -10 16 -5 3
-10 -1 -10 -9z"/>
<path d="M7632 5530 c0 -19 2 -27 5 -17 2 9 2 25 0 35 -3 9 -5 1 -5 -18z"/>
<path d="M8245 5410 c2 -14 5 -40 5 -57 0 -18 4 -33 9 -33 11 0 3 63 -11 95
-7 17 -8 16 -3 -5z"/>
<path d="M2464 5297 c-3 -9 1 -23 10 -32 15 -15 17 -15 22 0 4 9 0 24 -9 33
-15 14 -17 14 -23 -1z"/>
<path d="M3432 5278 c6 -18 28 -21 28 -4 0 9 -7 16 -16 16 -9 0 -14 -5 -12
-12z"/>
<path d="M2490 5230 c0 -5 5 -10 10 -10 6 0 10 5 10 10 0 6 -4 10 -10 10 -5 0
-10 -4 -10 -10z"/>
<path d="M0 5010 c0 -6 47 -10 120 -10 73 0 120 4 120 10 0 6 -47 10 -120 10
-73 0 -120 -4 -120 -10z"/>
<path d="M2080 3660 c0 -5 7 -10 15 -10 8 0 15 5 15 10 0 6 -7 10 -15 10 -8 0
-15 -4 -15 -10z"/>
<path d="M8842 3580 c0 -14 2 -19 5 -12 2 6 2 18 0 25 -3 6 -5 1 -5 -13z"/>
<path d="M2100 3473 c0 -5 5 -15 10 -23 8 -12 10 -11 10 8 0 12 -4 22 -10 22
-5 0 -10 -3 -10 -7z"/>
<path d="M2950 3361 c-12 -24 -14 -138 -1 -145 4 -3 17 1 27 9 12 9 45 15 94
15 52 0 70 3 60 10 -8 5 -25 10 -37 10 -13 0 -23 6 -23 13 0 7 -9 20 -19 29
-10 9 -23 22 -27 30 -5 7 -21 21 -36 31 -26 16 -28 16 -38 -2z"/>
<path d="M1187 3153 c-11 -10 -8 -73 3 -73 6 0 10 18 10 40 0 41 -2 45 -13 33z"/>
<path d="M1230 3121 c0 -23 5 -41 10 -41 6 0 10 15 10 34 0 19 -4 38 -10 41
-6 4 -10 -10 -10 -34z"/>
<path d="M5811 3103 c-1 -6 -4 -20 -7 -30 -5 -17 -5 -17 6 0 6 10 9 23 6 30
-3 9 -5 9 -5 0z"/>
<path d="M7980 3091 c0 -6 5 -13 10 -16 6 -3 10 1 10 9 0 9 -4 16 -10 16 -5 0
-10 -4 -10 -9z"/>
<path d="M8876 3015 c-4 -39 -3 -73 3 -83 8 -12 10 6 11 66 0 45 -2 82 -4 82
-2 0 -6 -29 -10 -65z"/>
<path d="M3519 3034 c18 -8 36 -13 39 -10 8 9 0 13 -38 20 l-35 6 34 -16z"/>
<path d="M2130 2802 c0 -27 5 -42 16 -46 12 -5 15 2 12 36 -4 55 -28 64 -28
10z"/>
<path d="M8015 2738 c4 -13 8 -33 9 -45 2 -37 16 -14 16 28 0 29 -4 39 -16 39
-12 0 -15 -5 -9 -22z"/>
<path d="M8896 2535 c-3 -8 -1 -15 4 -15 6 0 10 7 10 15 0 8 -2 15 -4 15 -2 0
-6 -7 -10 -15z"/>
<path d="M8040 2434 c0 -8 5 -12 10 -9 6 3 10 10 10 16 0 5 -4 9 -10 9 -5 0
-10 -7 -10 -16z"/>
<path d="M8891 2323 c1 -27 4 -73 9 -103 6 -49 7 -44 9 48 0 62 -3 102 -9 102
-5 0 -10 -21 -9 -47z"/>
<path d="M9817 2224 c-12 -12 -8 -24 7 -24 8 0 17 -10 19 -22 4 -21 4 -21 6
-2 1 24 -21 58 -32 48z"/>
<path d="M8083 2097 c1 -15 5 -27 10 -27 10 0 9 22 -2 39 -7 10 -9 7 -8 -12z"/>
<path d="M9871 2050 c0 -33 1 -34 11 -12 8 17 8 26 0 34 -9 9 -12 4 -11 -22z"/>
<path d="M2177 2052 c-10 -10 -17 -23 -17 -29 0 -13 30 -39 31 -27 6 50 8 74
5 74 -1 0 -10 -8 -19 -18z"/>
<path d="M8095 2030 c3 -5 10 -10 16 -10 5 0 9 5 9 10 0 6 -7 10 -16 10 -8 0
-12 -4 -9 -10z"/>
<path d="M8942 1730 c-1 -19 -5 -53 -8 -75 -4 -30 -3 -36 5 -25 9 12 11 9 12
-15 l1 -30 8 30 c4 17 8 44 8 60 1 25 -1 27 -8 10 -6 -15 -9 -8 -12 30 -3 38
-5 41 -6 15z"/>
<path d="M8962 1740 c0 -14 2 -19 5 -12 2 6 2 18 0 25 -3 6 -5 1 -5 -13z"/>
<path d="M9395 1720 c-7 -11 -9 -259 -2 -266 3 -3 8 26 12 63 3 37 13 78 21
91 8 12 12 27 9 32 -3 6 -1 10 4 10 6 0 11 15 11 33 0 22 -3 28 -9 18 -7 -11
-10 -9 -16 8 -7 22 -20 27 -30 11z"/>
<path d="M2850 1558 c0 -23 3 -29 9 -19 8 12 4 51 -5 51 -2 0 -4 -15 -4 -32z"/>
<path d="M8951 1503 c1 -56 2 -57 9 -18 4 22 10 48 15 58 5 12 3 17 -9 17 -13
0 -16 -11 -15 -57z"/>
<path d="M8170 1471 c0 -6 5 -13 10 -16 6 -3 10 1 10 9 0 9 -4 16 -10 16 -5 0
-10 -4 -10 -9z"/>
<path d="M2242 1105 c0 -16 2 -22 5 -12 2 9 2 23 0 30 -3 6 -5 -1 -5 -18z"/>
<path d="M8237 1023 c-11 -10 -8 -63 3 -63 6 0 10 16 10 35 0 36 -2 40 -13 28z"/>
<path d="M8292 760 c0 -14 2 -19 5 -12 2 6 2 18 0 25 -3 6 -5 1 -5 -13z"/>
<path d="M4674 696 c7 -67 15 -84 27 -65 15 24 10 63 -12 94 l-21 30 6 -59z"/>
<path d="M10243 722 c-8 -5 -6 -21 8 -62 11 -30 24 -56 29 -58 6 -2 10 -20 10
-40 0 -20 5 -44 10 -52 7 -11 10 0 10 38 0 28 -4 52 -10 52 -5 0 -10 18 -10
40 0 22 -4 40 -8 40 -5 0 -12 11 -18 25 -5 15 -13 22 -21 17z"/>
<path d="M8291 694 c0 -11 3 -14 6 -6 3 7 2 16 -1 19 -3 4 -6 -2 -5 -13z"/>
<path d="M9316 554 c-3 -26 -4 -49 -2 -52 3 -2 8 17 11 43 4 25 5 48 3 51 -3
2 -8 -17 -12 -42z"/>
<path d="M2154 435 c-9 -60 11 -159 44 -220 49 -88 66 -66 64 81 -2 106 -13
144 -41 144 -11 0 -25 9 -31 20 -17 32 -28 24 -36 -25z"/>
<path d="M10345 360 c-3 -11 -2 -28 4 -37 8 -15 10 -11 11 20 0 41 -5 47 -15
17z"/>
<path d="M8344 344 c3 -9 6 -18 6 -20 0 -2 5 -4 10 -4 6 0 10 9 10 20 0 12 -7
20 -16 20 -11 0 -14 -5 -10 -16z"/>
<path d="M9271 203 c-1 -77 8 -105 23 -67 9 25 7 94 -3 94 -5 0 -12 12 -14 28
-2 15 -5 -10 -6 -55z"/>
<path d="M10410 111 c0 -28 5 -51 10 -51 6 0 10 20 10 44 0 25 -4 48 -10 51
-6 4 -10 -13 -10 -44z"/>
<path d="M380 80 c0 -22 5 -40 10 -40 6 0 10 -9 10 -20 0 -17 7 -20 40 -20
l40 0 0 60 0 60 -50 0 -50 0 0 -40z"/>
<path d="M560 105 c0 -8 5 -15 10 -15 6 0 10 7 10 15 0 8 -4 15 -10 15 -5 0
-10 -7 -10 -15z"/>
<path d="M4741 54 c0 -11 3 -14 6 -6 3 7 2 16 -1 19 -3 4 -6 -2 -5 -13z"/>
</g>
</svg>
